<svg width="1698" height="610" viewBox="0 0 1698 610" fill="none" xmlns="http://www.w3.org/2000/svg">
<path d="M871.285 271.5H970.3L984.1 278.4L970.3 292.2L956.5 285.3L942.7 292.2L928.9 285.3L915.1 292.2H901.3L894.4 299.1H871.285C865.689 315.177 850.309 326.7 832.3 326.7C829.747 326.7 827.263 326.493 824.848 326.01C814.981 324.216 806.294 318.903 800.215 311.451C794.35 304.344 790.9 295.236 790.9 285.3C790.9 262.461 809.461 243.9 832.3 243.9C850.309 243.9 865.696 255.423 871.285 271.5Z" fill="#FFC107"/>
<path d="M984.1 437.1H832.3L790.9 409.5V375L800.077 368.859L825.055 352.23L832.3 347.4H984.1V437.1Z" fill="#F44336"/>
<path d="M984.1 340.5H832.3C832.3 338.161 832.121 335.905 832.038 333.586C832.128 333.593 832.203 333.6 832.3 333.6C851.123 333.6 868.07 322.691 875.915 306H894.4C896.235 306 897.988 305.275 899.278 303.978L904.157 299.1H915.1C916.17 299.1 917.232 298.852 918.184 298.376L928.9 293.014L939.616 298.369C941.555 299.342 943.845 299.342 945.791 298.369L956.5 293.014L967.216 298.369C969.879 299.687 973.074 299.176 975.178 297.071L988.978 283.271C990.552 281.705 991.269 279.476 990.91 277.289C990.552 275.102 989.165 273.218 987.184 272.225L973.384 265.325C972.432 264.848 971.37 264.6 970.3 264.6H875.915C868.07 247.909 851.123 237 832.3 237C805.673 237 784 258.666 784 285.3C784 295.333 787.264 305.006 792.956 313.038C791.618 320.959 790.9 330.129 790.9 340.5C790.9 349.912 791.48 358.288 792.563 365.595L787.057 369.266C785.145 370.543 784 372.702 784 375V409.5C784 411.805 785.152 413.957 787.071 415.241L828.471 442.841C829.602 443.593 830.941 444 832.3 444H984.1C987.916 444 991 440.909 991 437.1V347.4C991 343.591 987.916 340.5 984.1 340.5V340.5ZM832.3 250.8C846.942 250.8 859.997 260.025 864.771 273.77C865.737 276.537 868.353 278.4 871.285 278.4H928.9H956.5H968.672L972.453 280.291L968.941 283.803L959.591 279.125C958.618 278.642 957.556 278.4 956.5 278.4C955.444 278.4 954.382 278.642 953.416 279.125L942.7 284.486L931.984 279.131C931.018 278.642 929.956 278.4 928.9 278.4C927.844 278.4 926.782 278.642 925.816 279.125L913.472 285.3H901.3C899.465 285.3 897.712 286.025 896.422 287.322L891.543 292.2H871.285C868.346 292.2 865.731 294.063 864.771 296.83C859.997 310.575 846.942 319.8 832.3 319.8C831.872 319.8 831.534 319.703 831.127 319.69C828.629 297.244 821.957 285.3 811.6 285.3C807.784 285.3 804.7 288.391 804.7 292.2C804.7 295.816 807.474 298.783 811.014 299.079C812.249 300.142 814.947 304.875 816.734 315.943C812.476 313.776 808.612 310.837 805.535 307.063C800.477 300.929 797.8 293.401 797.8 285.3C797.8 266.277 813.277 250.8 832.3 250.8V250.8ZM804.7 340.5C804.7 335.07 804.914 329.915 805.321 325.154C809.282 327.839 813.58 329.902 818.148 331.302C818.307 334.352 818.5 337.388 818.5 340.5C818.5 343.26 818.424 345.882 818.321 348.428L805.438 357.019C804.969 351.947 804.7 346.42 804.7 340.5ZM977.2 430.2H834.391L797.8 405.809V378.685L816.568 366.175C814.774 376.408 812.228 380.879 811.02 381.921C807.481 382.217 804.7 385.184 804.7 388.8C804.7 392.609 807.784 395.7 811.6 395.7C822.73 395.7 829.588 381.948 831.631 356.135L834.391 354.3H977.2V430.2Z" fill="black"/>
<path d="M887.5 423.3H963.4C967.216 423.3 970.3 420.209 970.3 416.4V368.1C970.3 364.291 967.216 361.2 963.4 361.2C959.584 361.2 956.5 364.291 956.5 368.1V409.5H887.5C883.684 409.5 880.6 412.591 880.6 416.4C880.6 420.209 883.684 423.3 887.5 423.3Z" fill="black"/>
<path d="M832.3 271.5C836.178 271.5 839.918 273.184 842.567 276.123C843.933 277.634 845.81 278.4 847.687 278.4C849.336 278.4 850.992 277.814 852.31 276.62C855.139 274.067 855.36 269.706 852.807 266.87C847.542 261.047 840.069 257.7 832.3 257.7C828.484 257.7 825.4 260.791 825.4 264.6C825.4 268.409 828.484 271.5 832.3 271.5Z" fill="black"/>
<path d="M1392.5 190.767C1431.55 190.767 1463.21 159.109 1463.21 120.056C1463.21 81.0034 1431.55 49.345 1392.5 49.345C1353.45 49.345 1321.79 81.0034 1321.79 120.056C1321.79 159.109 1353.45 190.767 1392.5 190.767Z" fill="#FCE25C"/>
<path d="M1322.35 128.78C1326.65 163.713 1356.41 190.767 1392.5 190.767C1428.6 190.767 1458.36 163.713 1462.66 128.78H1322.35Z" fill="#E6B700"/>
<path d="M1264.21 179.289V462.135C1264.21 478.872 1277.78 492.44 1294.52 492.44H1670.3V148.984H1294.52C1277.78 148.984 1264.21 162.552 1264.21 179.289V179.289Z" fill="#97E4F9"/>
<path d="M1304.62 189.39H1629.89V452.032H1304.62V189.39Z" fill="#DCF5FF"/>
<path d="M1690.5 381.321H1579.18C1568.13 381.321 1559.18 372.367 1559.18 361.321V280.101C1559.18 269.055 1568.13 260.101 1579.18 260.101H1690.5V381.321Z" fill="#09A6EE"/>
<path d="M1629.89 351.016C1646.63 351.016 1660.19 337.448 1660.19 320.711C1660.19 303.974 1646.63 290.406 1629.89 290.406C1613.15 290.406 1599.58 303.974 1599.58 320.711C1599.58 337.448 1613.15 351.016 1629.89 351.016Z" fill="#FCDD2E"/>
<path d="M1643.72 293.749C1645.85 297.897 1647.06 302.595 1647.06 307.579C1647.06 324.316 1633.5 337.884 1616.76 337.884C1611.77 337.884 1607.08 336.673 1602.93 334.541C1607.96 344.321 1618.14 351.016 1629.89 351.016C1646.63 351.016 1660.2 337.448 1660.2 320.711C1660.2 308.959 1653.5 298.776 1643.72 293.749Z" fill="#E6B700"/>
<path d="M1215.72 342.935C1228 342.935 1237.95 332.985 1237.95 320.711C1237.95 308.437 1228 298.487 1215.72 298.487C1203.45 298.487 1193.5 308.437 1193.5 320.711C1193.5 332.985 1203.45 342.935 1215.72 342.935Z" fill="#FCDD2E"/>
<path d="M1354.12 260.102C1366.39 260.102 1376.34 250.152 1376.34 237.878C1376.34 225.604 1366.39 215.654 1354.12 215.654C1341.84 215.654 1331.89 225.604 1331.89 237.878C1331.89 250.152 1341.84 260.102 1354.12 260.102Z" fill="#FCDD2E"/>
<path d="M1411.7 352.027C1423.97 352.027 1433.92 342.077 1433.92 329.803C1433.92 317.529 1423.97 307.579 1411.7 307.579C1399.42 307.579 1389.47 317.529 1389.47 329.803C1389.47 342.077 1399.42 352.027 1411.7 352.027Z" fill="#FCDD2E"/>
<path d="M1264.21 432.84C1276.48 432.84 1286.43 422.89 1286.43 410.616C1286.43 398.342 1276.48 388.392 1264.21 388.392C1251.94 388.392 1241.99 398.342 1241.99 410.616C1241.99 422.89 1251.94 432.84 1264.21 432.84Z" fill="#FCDD2E"/>
<path d="M1571.3 148.983C1610.35 148.983 1642.01 117.325 1642.01 78.272C1642.01 39.2194 1610.35 7.56104 1571.3 7.56104C1532.25 7.56104 1500.59 39.2194 1500.59 78.272C1500.59 117.325 1532.25 148.983 1571.3 148.983Z" fill="#FCE25C"/>
<path d="M1613.64 21.632C1622.48 33.435 1627.71 48.091 1627.71 63.969C1627.71 103.022 1596.05 134.68 1557 134.68C1541.12 134.68 1526.46 129.446 1514.66 120.609C1527.56 137.834 1548.13 148.983 1571.3 148.983C1610.35 148.983 1642.01 117.324 1642.01 78.272C1642.01 55.098 1630.86 34.529 1613.64 21.632V21.632Z" fill="#E6B700"/>
<path d="M1690.5 252.542H1677.8V148.923C1677.8 144.78 1674.44 141.423 1670.3 141.423H1617.28C1636.8 127.188 1649.51 104.163 1649.51 78.212C1649.51 35.086 1614.43 0 1571.3 0C1528.17 0 1493.09 35.086 1493.09 78.212C1493.09 104.163 1505.8 127.188 1525.32 141.423H1467.73C1469.7 134.499 1470.71 127.331 1470.71 119.996C1470.71 76.87 1435.63 41.784 1392.5 41.784C1349.38 41.784 1314.29 76.87 1314.29 119.996C1314.29 127.332 1315.31 134.499 1317.28 141.423H1294.52C1273.67 141.423 1256.71 158.383 1256.71 179.229V220.355C1256.71 224.498 1260.07 227.855 1264.21 227.855C1268.35 227.855 1271.71 224.498 1271.71 220.355V179.229C1271.71 166.654 1281.94 156.423 1294.52 156.423H1662.8V252.541H1637.39V189.33C1637.39 185.187 1634.03 181.83 1629.89 181.83H1420.1C1415.96 181.83 1412.6 185.187 1412.6 189.33C1412.6 193.473 1415.96 196.83 1420.1 196.83H1622.39V252.541H1579.18C1567.28 252.541 1557.13 260.133 1553.31 270.724H1387.45C1385.46 270.724 1383.55 271.514 1382.15 272.92L1341.92 313.15H1312.12V196.83H1384.82C1388.96 196.83 1392.32 193.473 1392.32 189.33C1392.32 185.187 1388.96 181.83 1384.82 181.83H1304.62C1300.48 181.83 1297.12 185.187 1297.12 189.33V313.15H1271.71V255.296C1271.71 251.153 1268.35 247.796 1264.21 247.796C1260.07 247.796 1256.71 251.153 1256.71 255.296V313.15H1244.49C1241.15 300.381 1229.52 290.927 1215.72 290.927C1199.33 290.928 1186 304.262 1186 320.651C1186 337.041 1199.33 350.375 1215.72 350.375C1229.52 350.375 1241.15 340.922 1244.49 328.151H1256.71V381.793C1243.94 385.125 1234.49 396.757 1234.49 410.556C1234.49 424.355 1243.94 435.987 1256.71 439.319V462.073C1256.71 482.919 1273.67 499.879 1294.52 499.879H1599.58C1603.73 499.879 1607.08 496.522 1607.08 492.379C1607.08 488.236 1603.73 484.879 1599.58 484.879H1294.52C1281.94 484.879 1271.71 474.649 1271.71 462.073V439.32C1282.08 436.613 1290.27 428.43 1292.97 418.057H1297.12V451.973C1297.12 456.116 1300.47 459.473 1304.62 459.473H1629.89C1634.03 459.473 1637.39 456.116 1637.39 451.973V388.762H1662.8V484.88H1634.62C1630.48 484.88 1627.12 488.237 1627.12 492.38C1627.12 496.523 1630.48 499.88 1634.62 499.88H1670.3C1674.44 499.88 1677.8 496.523 1677.8 492.38V388.761H1690.5C1694.64 388.761 1698 385.404 1698 381.261V260.041C1698 255.899 1694.64 252.542 1690.5 252.542ZM1329.29 119.997C1329.29 85.142 1357.65 56.785 1392.5 56.785C1427.36 56.785 1455.71 85.141 1455.71 119.997C1455.71 127.396 1454.44 134.579 1451.97 141.424H1418.15C1418.88 139.234 1419.29 136.895 1419.29 134.461C1419.29 128.925 1417.22 123.864 1413.83 119.997C1417.22 116.13 1419.29 111.07 1419.29 105.533C1419.29 94.329 1410.85 85.064 1400 83.738V76.605C1400 72.462 1396.64 69.105 1392.5 69.105C1388.36 69.105 1385 72.462 1385 76.605V83.569H1373.22C1369.07 83.569 1365.72 86.926 1365.72 91.069V119.997V141.424H1333.03C1330.56 134.578 1329.29 127.395 1329.29 119.997ZM1397.32 98.569C1401.16 98.569 1404.29 101.693 1404.29 105.533C1404.29 109.373 1401.16 112.497 1397.32 112.497H1380.72V98.569H1397.32ZM1380.72 141.423V127.496H1397.32C1401.16 127.496 1404.29 130.62 1404.29 134.46C1404.29 138.3 1401.16 141.423 1397.32 141.423H1380.72ZM1508.09 78.212C1508.09 43.357 1536.44 15 1571.3 15C1606.15 15 1634.51 43.356 1634.51 78.212C1634.51 113.066 1606.15 141.423 1571.3 141.423C1536.44 141.423 1508.09 113.067 1508.09 78.212ZM1215.72 335.375C1207.61 335.375 1201 328.77 1201 320.651C1201 312.532 1207.61 305.928 1215.72 305.928C1223.84 305.928 1230.45 312.532 1230.45 320.651C1230.45 328.77 1223.84 335.375 1215.72 335.375ZM1345.02 328.151C1347.01 328.151 1348.92 327.361 1350.33 325.955L1390.56 285.725H1551.68V322.244H1440.46C1437.13 309.474 1425.5 300.02 1411.7 300.02C1395.31 300.02 1381.97 313.354 1381.97 329.744C1381.97 346.134 1395.31 359.468 1411.7 359.468C1425.5 359.468 1437.13 350.015 1440.46 337.244H1551.68V361.263C1551.68 365.763 1552.77 370.01 1554.7 373.763H1382.4C1380.79 373.763 1379.22 374.283 1377.93 375.244L1340.52 403.057H1312.12V328.152H1345.02V328.151ZM1426.42 329.743C1426.42 337.861 1419.81 344.467 1411.7 344.467C1403.58 344.467 1396.97 337.862 1396.97 329.743C1396.97 321.624 1403.58 315.019 1411.7 315.019C1419.81 315.019 1426.42 321.625 1426.42 329.743ZM1264.21 425.28C1256.09 425.28 1249.49 418.675 1249.49 410.556C1249.49 402.437 1256.09 395.832 1264.21 395.832C1272.33 395.832 1278.93 402.437 1278.93 410.556C1278.93 418.675 1272.33 425.28 1264.21 425.28ZM1292.97 403.056C1290.27 392.683 1282.08 384.499 1271.71 381.793V328.151H1297.12V403.056H1292.97ZM1622.39 444.472H1312.12V418.056H1343C1344.62 418.056 1346.19 417.536 1347.48 416.575L1384.88 388.762H1579.18H1579.38H1622.39V444.472ZM1683 373.761H1579.38H1579.18C1572.29 373.761 1566.68 368.154 1566.68 361.261V280.041C1566.68 273.148 1572.29 267.541 1579.18 267.541H1683V373.761Z" fill="black"/>
<path d="M1629.89 282.906C1609.04 282.906 1592.08 299.865 1592.08 320.711C1592.08 341.557 1609.04 358.517 1629.89 358.517C1650.74 358.517 1667.69 341.557 1667.69 320.711C1667.69 299.865 1650.74 282.906 1629.89 282.906ZM1629.89 343.517C1617.31 343.517 1607.08 333.287 1607.08 320.711C1607.08 308.137 1617.31 297.906 1629.89 297.906C1642.46 297.906 1652.69 308.136 1652.69 320.711C1652.69 333.286 1642.46 343.517 1629.89 343.517Z" fill="black"/>
<path d="M1393 166C1421.72 166 1445 141.376 1445 111C1445 80.6243 1421.72 56 1393 56C1364.28 56 1341 80.6243 1341 111C1341 141.376 1364.28 166 1393 166Z" fill="#FCE25C"/>
<path d="M1354.12 208.154C1337.73 208.154 1324.39 221.488 1324.39 237.878C1324.39 254.268 1337.73 267.602 1354.12 267.602C1367.92 267.602 1379.55 258.149 1382.88 245.378H1462.2C1466.35 245.378 1469.7 242.021 1469.7 237.878C1469.7 233.735 1466.35 230.378 1462.2 230.378H1382.88C1379.55 217.608 1367.92 208.154 1354.12 208.154ZM1354.12 252.602C1346 252.602 1339.39 245.997 1339.39 237.878C1339.39 229.759 1346 223.154 1354.12 223.154C1362.24 223.154 1368.84 229.759 1368.84 237.878C1368.84 245.997 1362.23 252.602 1354.12 252.602Z" fill="black"/>
<path d="M1552.11 409.177H1406.65C1402.5 409.177 1399.15 412.534 1399.15 416.677C1399.15 420.82 1402.5 424.177 1406.65 424.177H1552.11C1556.25 424.177 1559.61 420.82 1559.61 416.677C1559.61 412.534 1556.25 409.177 1552.11 409.177Z" fill="black"/>
<g clip-path="url(#clip0)">
<path d="M1571 58.9375V89.6875L1542.81 74.3125L1571 58.9375Z" fill="#330C66"/>
<path d="M1599.19 74.3125L1571 89.6875V58.9375L1599.19 74.3125Z" fill="#50218A"/>
<path d="M1571 99.9375V128.125L1542.81 84.5625L1571 99.9375Z" fill="#50218A"/>
<path d="M1571 35.875V58.9375L1542.81 74.3125L1571 35.875Z" fill="#50218A"/>
<path d="M1599.19 84.5625L1571 128.125V99.9375L1599.19 84.5625Z" fill="#8853BF"/>
<path d="M1571 35.875L1599.19 74.3125L1571 58.9375V35.875Z" fill="#8853BF"/>
<path d="M1624.81 82C1624.81 92.6431 1621.66 103.047 1615.74 111.897C1609.83 120.746 1601.43 127.643 1591.59 131.716C1581.76 135.789 1570.94 136.855 1560.5 134.779C1550.06 132.702 1540.47 127.577 1532.95 120.051C1525.42 112.525 1520.3 102.937 1518.22 92.4983C1516.15 82.0597 1517.21 71.2398 1521.28 61.4068C1525.36 51.5739 1532.25 43.1695 1541.1 37.2565C1549.95 31.3435 1560.36 28.1875 1571 28.1875C1585.27 28.1875 1598.96 33.857 1609.05 43.9488C1619.14 54.0406 1624.81 67.728 1624.81 82ZM1599.19 74.3125L1571 35.875L1542.81 74.3125L1571 89.6875L1599.19 74.3125ZM1571 128.125L1599.19 84.5625L1571 99.9375L1542.81 84.5625L1571 128.125Z" fill="#FAAB09"/>
<path d="M1571 28.1876C1562.08 28.1748 1553.3 30.3892 1545.46 34.6297C1541.71 46.0815 1541.95 58.4663 1546.15 69.7616L1571 35.8751L1599.19 74.3126L1571 89.6876L1550.17 78.3254C1555.4 87.2715 1563.08 94.5245 1572.32 99.2175L1599.19 84.5626L1586.55 104.089C1598.7 106.439 1611.29 104.508 1622.17 98.623C1624.8 90.5471 1625.48 81.963 1624.16 73.5736C1622.83 65.1842 1619.54 57.228 1614.55 50.3566C1609.55 43.4852 1603.01 37.8939 1595.44 34.0406C1587.87 30.1873 1579.49 28.1815 1571 28.1876V28.1876Z" fill="#F6D049"/>
<path d="M1543.84 7.35436L1549.96 24.2156C1543.22 26.6583 1536.97 30.2761 1531.49 34.9012L1531.46 34.8756L1519.93 21.1406C1527.04 15.1854 1535.13 10.5118 1543.84 7.32874V7.35436Z" fill="#F6D049"/>
<path d="M1502.2 42.2812L1517.75 51.25C1514.15 57.4547 1511.68 64.2477 1510.45 71.3144H1510.42L1492.77 68.2138H1492.74C1494.35 59.0833 1497.55 50.3061 1502.2 42.2812V42.2812Z" fill="#F6D049"/>
<path d="M1517.75 112.75L1502.2 121.719C1497.55 113.694 1494.35 104.917 1492.74 95.7863H1492.77L1510.42 92.6857H1510.45C1511.68 99.7524 1514.15 106.545 1517.75 112.75V112.75Z" fill="#F6D049"/>
<path d="M1549.96 139.784L1543.84 156.646V156.671C1535.13 153.488 1527.04 148.815 1519.93 142.859L1531.46 129.124L1531.49 129.099C1536.97 133.724 1543.22 137.342 1549.96 139.784V139.784Z" fill="#F6D049"/>
<path d="M1598.16 156.646V156.671C1589.45 159.829 1580.26 161.442 1571 161.438V143.5C1578.18 143.51 1585.3 142.252 1592.04 139.784L1598.16 156.646Z" fill="#F6D049"/>
<path d="M1624.25 112.75L1639.8 121.719C1635.17 129.745 1629.17 136.9 1622.07 142.859L1610.54 129.124L1610.51 129.099C1616.02 124.498 1620.67 118.964 1624.25 112.75V112.75Z" fill="#F6D049"/>
<path d="M1649.26 68.2137C1650.83 77.3374 1650.83 86.6626 1649.26 95.7862H1649.23L1631.58 92.6856H1631.55C1632.82 85.6179 1632.82 78.382 1631.55 71.3144H1631.58L1649.23 68.2137H1649.26Z" fill="#F6D049"/>
<path d="M1598.16 7.32876V7.35438L1592.04 24.2156C1585.3 21.7483 1578.18 20.4905 1571 20.5V2.56251C1580.26 2.55783 1589.45 4.17081 1598.16 7.32876V7.32876Z" fill="#F6D049"/>
<path d="M1639.8 42.2812L1624.25 51.25C1620.67 45.0364 1616.02 39.5023 1610.51 34.9012L1610.54 34.8756L1622.07 21.1406C1629.17 27.1005 1635.17 34.255 1639.8 42.2812V42.2812Z" fill="#F6D049"/>
<path d="M1571 2.56251V20.5C1563.82 20.4905 1556.7 21.7483 1549.96 24.2156L1543.84 7.35438V7.32876C1552.55 4.17081 1561.74 2.55783 1571 2.56251V2.56251Z" fill="#FAAB09"/>
<path d="M1531.46 34.8756L1531.49 34.9012C1525.98 39.5023 1521.33 45.0364 1517.75 51.25L1502.2 42.2812C1506.83 34.255 1512.83 27.1005 1519.93 21.1406L1531.46 34.8756Z" fill="#FAAB09"/>
<path d="M1510.42 71.3144H1510.45C1509.18 78.382 1509.18 85.6179 1510.45 92.6856H1510.42L1492.77 95.7862H1492.74C1491.17 86.6626 1491.17 77.3374 1492.74 68.2137H1492.77L1510.42 71.3144Z" fill="#FAAB09"/>
<path d="M1517.75 112.75C1521.33 118.964 1525.98 124.498 1531.49 129.099L1531.46 129.124L1519.93 142.859C1512.83 136.9 1506.83 129.745 1502.2 121.719L1517.75 112.75Z" fill="#FAAB09"/>
<path d="M1571 143.5V161.437C1561.74 161.442 1552.55 159.829 1543.84 156.671V156.646L1549.96 139.784C1556.7 142.252 1563.82 143.509 1571 143.5V143.5Z" fill="#FAAB09"/>
<path d="M1610.54 129.124L1622.07 142.859C1614.96 148.815 1606.87 153.488 1598.16 156.671V156.646L1592.04 139.784C1598.78 137.342 1605.03 133.724 1610.51 129.099L1610.54 129.124Z" fill="#FAAB09"/>
<path d="M1649.23 95.7863H1649.26C1647.65 104.917 1644.45 113.694 1639.8 121.719L1624.25 112.75C1627.85 106.545 1630.32 99.7524 1631.55 92.6857H1631.58L1649.23 95.7863Z" fill="#FAAB09"/>
<path d="M1649.26 68.2138H1649.23L1631.58 71.3144H1631.55C1630.32 64.2477 1627.85 57.4547 1624.25 51.25L1639.8 42.2812C1644.45 50.3061 1647.65 59.0833 1649.26 68.2138V68.2138Z" fill="#FAAB09"/>
<path d="M1622.07 21.1406L1610.54 34.8756L1610.51 34.9012C1605.03 30.2761 1598.78 26.6583 1592.04 24.2156L1598.16 7.35436V7.32874C1606.87 10.5118 1614.96 15.1854 1622.07 21.1406V21.1406Z" fill="#FAAB09"/>
<path d="M1571 20.5C1558.84 20.5 1546.95 24.1069 1536.83 30.8646C1526.72 37.6223 1518.84 47.2273 1514.18 58.465C1509.53 69.7026 1508.31 82.0682 1510.68 93.9981C1513.05 105.928 1518.91 116.886 1527.51 125.487C1536.11 134.088 1547.07 139.945 1559 142.318C1570.93 144.691 1583.3 143.473 1594.54 138.819C1605.77 134.164 1615.38 126.281 1622.14 116.168C1628.89 106.054 1632.5 94.1636 1632.5 82C1632.5 65.6892 1626.02 50.0464 1614.49 38.5129C1602.95 26.9794 1587.31 20.5 1571 20.5V20.5ZM1571 135.812C1560.36 135.812 1549.95 132.656 1541.1 126.743C1532.25 120.83 1525.36 112.426 1521.28 102.593C1517.21 92.7602 1516.15 81.9403 1518.22 71.5017C1520.3 61.0631 1525.42 51.4746 1532.95 43.9488C1540.47 36.423 1550.06 31.2979 1560.5 29.2215C1570.94 27.1451 1581.76 28.2108 1591.59 32.2837C1601.43 36.3567 1609.83 43.254 1615.74 52.1034C1621.66 60.9528 1624.81 71.3569 1624.81 82C1624.81 96.272 1619.14 109.959 1609.05 120.051C1598.96 130.143 1585.27 135.812 1571 135.812Z" fill="#5C2E96"/>
<path d="M1531.49 34.9012C1536.97 30.2761 1543.22 26.6583 1549.96 24.2156L1548.19 19.3801C1540.89 22.0445 1534.12 25.9672 1528.17 30.9703L1531.45 34.8756L1531.49 34.9012Z" fill="#FAAB09"/>
<path d="M1510.45 71.3144C1511.68 64.2477 1514.15 57.4547 1517.75 51.25L1513.31 48.6875C1509.42 55.4146 1506.74 62.7757 1505.4 70.4329L1510.42 71.3144H1510.45Z" fill="#FAAB09"/>
<path d="M1510.45 92.6857H1510.42L1505.4 93.5672C1506.74 101.224 1509.42 108.585 1513.31 115.313L1517.75 112.75C1514.15 106.545 1511.68 99.7524 1510.45 92.6857V92.6857Z" fill="#FAAB09"/>
<path d="M1531.49 129.099L1531.46 129.124L1528.18 133.03C1534.12 138.032 1540.9 141.954 1548.19 144.62L1549.95 139.784C1543.21 137.341 1536.96 133.723 1531.49 129.099V129.099Z" fill="#FAAB09"/>
<path d="M1571 143.5V148.625C1578.78 148.634 1586.5 147.279 1593.81 144.62L1592.04 139.784C1585.3 142.252 1578.18 143.509 1571 143.5V143.5Z" fill="#FAAB09"/>
<path d="M1610.51 129.099L1610.54 129.124L1613.82 133.03C1619.77 128.033 1624.8 122.037 1628.69 115.313L1624.25 112.75C1620.67 118.964 1616.02 124.498 1610.51 129.099V129.099Z" fill="#FAAB09"/>
<path d="M1631.55 71.3144C1632.82 78.382 1632.82 85.6179 1631.55 92.6856H1631.58L1636.6 93.5671C1637.97 85.9159 1637.97 78.084 1636.6 70.4329L1631.58 71.3144H1631.55Z" fill="#FAAB09"/>
<path d="M1592.04 24.2157L1593.81 19.3802C1586.5 16.7212 1578.78 15.3656 1571 15.375V20.5C1578.18 20.4905 1585.3 21.7484 1592.04 24.2157V24.2157Z" fill="#FAAB09"/>
<path d="M1610.51 34.9012C1616.02 39.5023 1620.67 45.0364 1624.25 51.25L1628.69 48.6875C1624.8 41.9624 1619.77 35.9662 1613.83 30.9678L1610.54 34.8756L1610.51 34.9012Z" fill="#FAAB09"/>
<path d="M1571 20.5V15.375C1563.22 15.3656 1555.5 16.7212 1548.19 19.3802L1549.96 24.2157C1556.7 21.7484 1563.82 20.4905 1571 20.5V20.5Z" fill="#F08400"/>
<path d="M1531.49 34.9012L1531.46 34.8756L1528.18 30.9703C1522.23 35.9673 1517.2 41.9627 1513.31 48.6875L1517.75 51.25C1521.33 45.0364 1525.98 39.5023 1531.49 34.9012V34.9012Z" fill="#F08400"/>
<path d="M1510.45 92.6856C1509.18 85.6179 1509.18 78.382 1510.45 71.3144H1510.42L1505.4 70.4329C1504.04 78.084 1504.04 85.9159 1505.4 93.5671L1510.42 92.6856H1510.45Z" fill="#F08400"/>
<path d="M1531.49 129.099C1525.98 124.498 1521.33 118.964 1517.75 112.75L1513.31 115.313C1517.2 122.038 1522.23 128.034 1528.17 133.032L1531.45 129.127L1531.49 129.099Z" fill="#F08400"/>
<path d="M1549.96 139.784L1548.19 144.62C1555.5 147.279 1563.22 148.634 1571 148.625V143.5C1563.82 143.509 1556.7 142.252 1549.96 139.784V139.784Z" fill="#F08400"/>
<path d="M1610.51 129.099C1605.03 133.724 1598.78 137.342 1592.04 139.784L1593.8 144.62C1601.1 141.955 1607.87 138.033 1613.82 133.03L1610.54 129.124L1610.51 129.099Z" fill="#F08400"/>
<path d="M1631.55 92.6857C1630.32 99.7524 1627.85 106.545 1624.25 112.75L1628.69 115.313C1632.58 108.585 1635.26 101.224 1636.6 93.5672L1631.58 92.6857H1631.55Z" fill="#F08400"/>
<path d="M1624.25 51.25C1627.85 57.4547 1630.32 64.2477 1631.55 71.3144H1631.58L1636.6 70.4329C1635.26 62.7756 1632.58 55.4144 1628.69 48.6875L1624.25 51.25Z" fill="#F08400"/>
<path d="M1610.51 34.9012L1610.54 34.8756L1613.82 30.9703C1607.88 25.9683 1601.1 22.0456 1593.81 19.3801L1592.04 24.2156C1598.78 26.6583 1605.03 30.2761 1610.51 34.9012V34.9012Z" fill="#F08400"/>
<path d="M1545.58 12.1514L1543.84 7.35436V7.32874C1535.13 10.5118 1527.04 15.1854 1519.93 21.1406L1523.24 25.0817C1529.87 19.5006 1537.44 15.1244 1545.58 12.1514V12.1514Z" fill="#FFF382"/>
<path d="M1497.83 69.1029C1499.32 60.5609 1502.31 52.349 1506.65 44.8437L1502.2 42.2812C1497.55 50.3061 1494.35 59.0832 1492.74 68.2137H1492.77L1497.83 69.1029Z" fill="#FFF382"/>
<path d="M1497.83 94.8971L1492.77 95.7863H1492.74C1494.35 104.917 1497.55 113.694 1502.2 121.719L1506.65 119.156C1502.31 111.651 1499.32 103.439 1497.83 94.8971V94.8971Z" fill="#FFF382"/>
<path d="M1545.58 151.849C1537.44 148.876 1529.87 144.499 1523.24 138.918L1519.93 142.859C1527.04 148.815 1535.13 153.488 1543.84 156.671V156.646L1545.58 151.849Z" fill="#FFF382"/>
<path d="M1596.42 151.849C1588.27 154.81 1579.67 156.321 1571 156.313V161.438C1580.26 161.442 1589.45 159.829 1598.16 156.671V156.646L1596.42 151.849Z" fill="#FFF382"/>
<path d="M1618.76 138.918L1622.07 142.859C1629.17 136.9 1635.17 129.745 1639.8 121.719L1635.35 119.156C1631.01 126.657 1625.4 133.344 1618.76 138.918V138.918Z" fill="#FFF382"/>
<path d="M1649.26 68.2137H1649.23L1644.17 69.1029C1645.69 77.6341 1645.69 86.3659 1644.17 94.8971L1649.23 95.7862H1649.26C1650.83 86.6626 1650.83 77.3374 1649.26 68.2137V68.2137Z" fill="#FFF382"/>
<path d="M1596.42 12.1514L1598.16 7.35438V7.32876C1589.45 4.17081 1580.26 2.55783 1571 2.56251V7.68751C1579.67 7.6793 1588.27 9.1901 1596.42 12.1514Z" fill="#FFF382"/>
<path d="M1635.35 44.8438L1639.8 42.2812C1635.17 34.255 1629.17 27.1005 1622.07 21.1406L1618.76 25.0818C1625.4 30.6559 1631.01 37.3432 1635.35 44.8438V44.8438Z" fill="#FFF382"/>
<path d="M1545.58 12.1514C1553.73 9.1901 1562.33 7.6793 1571 7.68751V2.56251C1561.74 2.55783 1552.55 4.17081 1543.84 7.32876V7.35438L1545.58 12.1514Z" fill="#F6D049"/>
<path d="M1523.24 25.0818L1519.93 21.1406C1512.83 27.1005 1506.83 34.255 1502.2 42.2812L1506.65 44.8438C1510.99 37.3432 1516.6 30.6559 1523.24 25.0818V25.0818Z" fill="#F6D049"/>
<path d="M1497.83 94.8971C1496.31 86.3659 1496.31 77.6341 1497.83 69.1029L1492.77 68.2137H1492.74C1491.17 77.3374 1491.17 86.6626 1492.74 95.7862H1492.77L1497.83 94.8971Z" fill="#F6D049"/>
<path d="M1506.65 119.156L1502.2 121.719C1506.83 129.745 1512.83 136.9 1519.93 142.859L1523.24 138.918C1516.6 133.344 1510.99 126.657 1506.65 119.156V119.156Z" fill="#F6D049"/>
<path d="M1545.58 151.849L1543.84 156.646V156.671C1552.55 159.829 1561.74 161.442 1571 161.438V156.313C1562.33 156.321 1553.73 154.81 1545.58 151.849V151.849Z" fill="#F6D049"/>
<path d="M1596.42 151.849L1598.16 156.646V156.671C1606.87 153.488 1614.96 148.815 1622.07 142.859L1618.76 138.918C1612.13 144.499 1604.56 148.876 1596.42 151.849Z" fill="#F6D049"/>
<path d="M1644.17 94.8971C1642.68 103.439 1639.69 111.651 1635.35 119.156L1639.8 121.719C1644.45 113.694 1647.65 104.917 1649.26 95.7863H1649.23L1644.17 94.8971Z" fill="#F6D049"/>
<path d="M1644.17 69.1029L1649.23 68.2137H1649.26C1647.65 59.0832 1644.45 50.3061 1639.8 42.2812L1635.35 44.8437C1639.69 52.349 1642.68 60.5609 1644.17 69.1029V69.1029Z" fill="#F6D049"/>
<path d="M1596.42 12.1514C1604.56 15.1244 1612.13 19.5006 1618.76 25.0817L1622.07 21.1406C1614.96 15.1854 1606.87 10.5118 1598.16 7.32874V7.35436L1596.42 12.1514Z" fill="#F6D049"/>
<path d="M1571 0C1554.78 0 1538.93 4.80922 1525.44 13.8195C1511.96 22.8298 1501.45 35.6364 1495.24 50.62C1489.04 65.6035 1487.41 82.091 1490.58 97.9974C1493.74 113.904 1501.55 128.515 1513.02 139.983C1524.49 151.451 1539.1 159.26 1555 162.424C1570.91 165.588 1587.4 163.965 1602.38 157.758C1617.36 151.552 1630.17 141.042 1639.18 127.557C1648.19 114.072 1653 98.2181 1653 82C1652.98 60.2597 1644.33 39.4169 1628.96 24.0442C1613.58 8.67152 1592.74 0.0244166 1571 0V0ZM1647.88 82C1647.87 85.619 1647.62 89.2333 1647.11 92.8163L1634.48 90.5921C1635.27 84.8912 1635.27 79.1088 1634.48 73.4079L1647.11 71.1837C1647.62 74.7667 1647.87 78.381 1647.88 82V82ZM1546.7 141.263L1542.32 153.307C1535.61 150.592 1529.31 146.942 1523.61 142.465L1531.85 132.653C1536.39 136.176 1541.39 139.072 1546.7 141.263V141.263ZM1551.52 143.023C1557 144.775 1562.69 145.775 1568.44 145.998V158.811C1561.19 158.576 1554.02 157.315 1547.13 155.065L1551.52 143.023ZM1573.56 145.998C1579.31 145.775 1585 144.774 1590.48 143.023L1594.86 155.067C1587.97 157.316 1580.8 158.576 1573.56 158.811V145.998ZM1595.3 141.263C1600.61 139.071 1605.61 136.174 1610.16 132.65L1618.39 142.475C1612.7 146.952 1606.4 150.603 1599.68 153.317L1595.3 141.263ZM1571 140.938C1559.34 140.937 1547.95 137.481 1538.26 131.005C1528.56 124.529 1521.01 115.324 1516.55 104.554C1512.09 93.785 1510.92 81.9346 1513.2 70.5019C1515.47 59.0691 1521.08 48.5675 1529.32 40.3249C1537.57 32.0823 1548.07 26.4691 1559.5 24.195C1570.93 21.9209 1582.79 23.088 1593.55 27.5488C1604.32 32.0097 1613.53 39.5639 1620 49.2561C1626.48 58.9483 1629.94 70.3433 1629.94 82C1629.92 97.626 1623.71 112.607 1612.66 123.656C1601.61 134.706 1586.63 140.921 1571 140.938ZM1494.13 82C1494.13 78.381 1494.38 74.7667 1494.89 71.1837L1507.52 73.4079C1506.73 79.1088 1506.73 84.8912 1507.52 90.5921L1494.89 92.8163C1494.38 89.2333 1494.13 85.619 1494.13 82V82ZM1508.41 68.3624L1495.78 66.1356C1497.28 59.043 1499.78 52.2005 1503.21 45.8149L1514.31 52.2212C1511.63 57.3102 1509.64 62.7401 1508.41 68.3624V68.3624ZM1508.41 95.6376C1509.64 101.26 1511.62 106.691 1514.31 111.781L1503.2 118.188C1499.77 111.802 1497.27 104.96 1495.77 97.867L1508.41 95.6376ZM1595.3 22.7371L1599.68 10.6933C1606.39 13.4077 1612.69 17.0578 1618.39 21.5353L1610.15 31.3471C1605.61 27.8243 1600.61 24.9284 1595.3 22.7371V22.7371ZM1590.48 20.9766C1585 19.226 1579.31 18.2252 1573.56 18.0016V5.18906C1580.81 5.42364 1587.98 6.685 1594.87 8.93544L1590.48 20.9766ZM1568.44 18.0016C1562.69 18.2252 1557 19.226 1551.53 20.9766L1547.14 8.93288C1554.03 6.68403 1561.2 5.42353 1568.44 5.18906V18.0016ZM1546.7 22.7371C1541.39 24.9288 1536.39 27.8256 1531.84 31.3496L1523.61 21.525C1529.3 17.0475 1535.6 13.3974 1542.32 10.6831L1546.7 22.7371ZM1627.7 52.2237L1638.8 45.8175C1642.23 52.2038 1644.73 59.0463 1646.22 66.1381L1633.59 68.3649C1632.36 62.7433 1630.38 57.3135 1627.7 52.2237V52.2237ZM1633.59 95.6376L1646.22 97.8644C1644.73 104.956 1642.23 111.799 1638.81 118.185L1627.7 111.779C1630.38 106.689 1632.36 101.259 1633.59 95.6376H1633.59ZM1636.23 41.3818L1625.13 47.7881C1622.05 42.9309 1618.34 38.5065 1614.09 34.6322L1622.33 24.8229C1627.71 29.6657 1632.39 35.2396 1636.23 41.3818H1636.23ZM1519.68 24.8255L1527.91 34.6347C1523.66 38.5091 1519.95 42.9335 1516.88 47.7906L1505.77 41.3844C1509.61 35.2418 1514.29 29.6679 1519.68 24.8255V24.8255ZM1505.77 122.618L1516.88 116.212C1519.95 121.069 1523.66 125.493 1527.91 129.368L1519.68 139.177C1514.29 134.335 1509.61 128.761 1505.77 122.618V122.618ZM1622.32 139.175L1614.09 129.365C1618.34 125.491 1622.05 121.066 1625.12 116.209L1636.23 122.616C1632.39 128.758 1627.71 134.332 1622.32 139.175V139.175Z" fill="black"/>
<path d="M1622.25 82C1622.25 95.5923 1616.85 108.628 1607.24 118.239C1597.63 127.85 1584.59 133.25 1571 133.25C1557.41 133.25 1544.37 127.85 1534.76 118.239C1525.15 108.628 1519.75 95.5923 1519.75 82H1514.62C1514.62 96.9516 1520.56 111.291 1531.14 121.863C1541.71 132.436 1556.05 138.375 1571 138.375C1585.95 138.375 1600.29 132.436 1610.86 121.863C1621.44 111.291 1627.38 96.9516 1627.38 82H1622.25Z" fill="black"/>
<path d="M1571 30.75C1583.76 30.6903 1596.09 35.4198 1605.53 44.0044C1614.98 52.5889 1620.86 64.4041 1622.02 77.1159L1627.12 76.6341C1625.84 62.6526 1619.37 49.6581 1608.98 40.215C1598.59 30.7718 1585.04 25.5661 1571 25.625C1558.87 25.6754 1547.08 29.6138 1537.35 36.8618C1527.62 44.1099 1520.48 54.2856 1516.96 65.8947L1521.87 67.3553C1525.07 56.802 1531.57 47.5519 1540.41 40.9635C1549.25 34.375 1559.97 30.7953 1571 30.75V30.75Z" fill="black"/>
<path d="M1520.68 72.2342L1515.65 71.2656C1515.31 73.0158 1515.05 74.8224 1514.88 76.6315L1519.98 77.1184C1520.13 75.4707 1520.37 73.8307 1520.68 72.2342V72.2342Z" fill="black"/>
<path d="M1541.58 76.5624L1569.77 91.9374C1570.15 92.1428 1570.57 92.2505 1571 92.2505C1571.43 92.2505 1571.85 92.1428 1572.23 91.9374L1600.41 76.5624C1600.74 76.3876 1601.02 76.1461 1601.24 75.8542C1601.46 75.5623 1601.61 75.2267 1601.69 74.8699C1601.77 74.5131 1601.77 74.1434 1601.7 73.7856C1601.62 73.4278 1601.47 73.0902 1601.26 72.7955L1573.07 34.358C1572.82 34.0502 1572.5 33.802 1572.15 33.6315C1571.79 33.461 1571.4 33.3726 1571 33.3726C1570.6 33.3726 1570.21 33.461 1569.85 33.6315C1569.5 33.802 1569.18 34.0502 1568.93 34.358L1540.74 72.7955C1540.53 73.0902 1540.38 73.4278 1540.3 73.7856C1540.23 74.1434 1540.23 74.5131 1540.31 74.8699C1540.39 75.2267 1540.54 75.5623 1540.76 75.8542C1540.98 76.1461 1541.26 76.3876 1541.58 76.5624V76.5624ZM1568.44 85.3723L1548.16 74.3125L1568.44 63.2528V85.3723ZM1573.56 63.2528L1593.84 74.3125L1573.56 85.3723V63.2528ZM1573.56 57.4154V43.7035L1590.32 66.5584L1573.56 57.4154ZM1568.44 57.4154L1551.68 66.5584L1568.44 43.7035V57.4154Z" fill="black"/>
<path d="M1540.66 85.954L1568.85 129.517C1569.08 129.876 1569.4 130.172 1569.77 130.377C1570.15 130.581 1570.57 130.689 1571 130.689C1571.43 130.689 1571.85 130.581 1572.23 130.377C1572.6 130.172 1572.92 129.876 1573.15 129.517L1601.34 85.954C1601.65 85.4754 1601.79 84.9072 1601.74 84.3392C1601.69 83.7712 1601.46 83.2359 1601.07 82.818C1600.68 82.4001 1600.16 82.1235 1599.6 82.032C1599.04 81.9405 1598.46 82.0393 1597.96 82.3127L1571 97.0189L1544.04 82.3127C1543.54 82.0393 1542.96 81.9405 1542.4 82.032C1541.84 82.1235 1541.32 82.4001 1540.93 82.818C1540.55 83.2359 1540.31 83.7712 1540.26 84.3392C1540.21 84.9072 1540.35 85.4754 1540.66 85.954ZM1573.56 119.448V101.46L1591.55 91.6479L1573.56 119.448ZM1568.44 101.46V119.448L1550.45 91.6479L1568.44 101.46Z" fill="black"/>
</g>
<g clip-path="url(#clip1)">
<path d="M1392.5 97.5469V125.484L1366.89 111.516L1392.5 97.5469Z" fill="#330C66"/>
<path d="M1418.11 111.516L1392.5 125.484V97.5469L1418.11 111.516Z" fill="#50218A"/>
<path d="M1392.5 134.797V160.406L1366.89 120.828L1392.5 134.797Z" fill="#50218A"/>
<path d="M1392.5 76.5938V97.5469L1366.89 111.516L1392.5 76.5938Z" fill="#50218A"/>
<path d="M1418.11 120.828L1392.5 160.406V134.797L1418.11 120.828Z" fill="#8853BF"/>
<path d="M1392.5 76.5938L1418.11 111.516L1392.5 97.5469V76.5938Z" fill="#8853BF"/>
<path d="M1441.39 118.5C1441.39 128.17 1438.52 137.622 1433.15 145.662C1427.78 153.702 1420.14 159.969 1411.21 163.669C1402.28 167.369 1392.45 168.338 1382.96 166.451C1373.48 164.565 1364.77 159.908 1357.93 153.071C1351.09 146.233 1346.44 137.522 1344.55 128.038C1342.66 118.554 1343.63 108.724 1347.33 99.7904C1351.03 90.8568 1357.3 83.2211 1365.34 77.8489C1373.38 72.4768 1382.83 69.6094 1392.5 69.6094C1405.47 69.6094 1417.9 74.7603 1427.07 83.9291C1436.24 93.0979 1441.39 105.533 1441.39 118.5ZM1418.11 111.516L1392.5 76.5938L1366.89 111.516L1392.5 125.484L1418.11 111.516ZM1392.5 160.406L1418.11 120.828L1392.5 134.797L1366.89 120.828L1392.5 160.406Z" fill="#FAAB09"/>
<path d="M1392.5 69.6094C1384.4 69.5978 1376.42 71.6097 1369.29 75.4623C1365.89 85.8667 1366.11 97.1187 1369.92 107.381L1392.5 76.5938L1418.11 111.516L1392.5 125.484L1373.58 115.162C1378.32 123.289 1385.31 129.879 1393.7 134.143L1418.11 120.828L1406.63 138.568C1417.67 140.704 1429.1 138.949 1438.99 133.603C1441.38 126.265 1442 118.466 1440.8 110.844C1439.59 103.222 1436.6 95.9938 1432.06 89.7508C1427.53 83.5079 1421.58 78.428 1414.7 74.9271C1407.82 71.4262 1400.22 69.6039 1392.5 69.6094V69.6094Z" fill="#F6D049"/>
<path d="M1367.82 50.6817L1373.39 66.0008C1367.26 68.2201 1361.58 71.507 1356.6 75.7091L1356.58 75.6858L1346.1 63.207C1352.56 57.7965 1359.91 53.5504 1367.82 50.6584V50.6817Z" fill="#F6D049"/>
<path d="M1329.99 82.4141L1344.12 90.5625C1340.85 96.1997 1338.6 102.371 1337.49 108.792H1337.46L1321.42 105.975H1321.4C1322.86 97.6793 1325.77 89.705 1329.99 82.4141V82.4141Z" fill="#F6D049"/>
<path d="M1344.12 146.437L1329.99 154.586C1325.77 147.295 1322.86 139.321 1321.4 131.025H1321.42L1337.46 128.208H1337.49C1338.6 134.629 1340.85 140.8 1344.12 146.437V146.437Z" fill="#F6D049"/>
<path d="M1373.39 170.999L1367.82 186.318V186.342C1359.91 183.45 1352.56 179.203 1346.1 173.793L1356.58 161.314L1356.6 161.291C1361.58 165.493 1367.26 168.78 1373.39 170.999V170.999Z" fill="#F6D049"/>
<path d="M1417.18 186.318V186.342C1409.27 189.211 1400.92 190.676 1392.5 190.672V174.375C1399.02 174.384 1405.49 173.241 1411.61 170.999L1417.18 186.318Z" fill="#F6D049"/>
<path d="M1440.88 146.438L1455.01 154.586C1450.8 161.878 1445.35 168.378 1438.9 173.793L1428.42 161.314L1428.4 161.291C1433.4 157.111 1437.62 152.083 1440.88 146.438V146.438Z" fill="#F6D049"/>
<path d="M1463.6 105.975C1465.03 114.264 1465.03 122.736 1463.6 131.025H1463.58L1447.54 128.208H1447.51C1448.66 121.787 1448.66 115.213 1447.51 108.792H1447.54L1463.58 105.975H1463.6Z" fill="#F6D049"/>
<path d="M1417.18 50.6584V50.6817L1411.61 66.0008C1405.49 63.7592 1399.02 62.6164 1392.5 62.625V46.3281C1400.92 46.3239 1409.27 47.7893 1417.18 50.6584V50.6584Z" fill="#F6D049"/>
<path d="M1455.01 82.4141L1440.88 90.5625C1437.62 84.9172 1433.4 79.8893 1428.4 75.7091L1428.42 75.6858L1438.9 63.207C1445.35 68.6218 1450.8 75.1219 1455.01 82.4141V82.4141Z" fill="#F6D049"/>
<path d="M1392.5 46.3281V62.625C1385.98 62.6164 1379.51 63.7592 1373.39 66.0008L1367.82 50.6817V50.6584C1375.73 47.7893 1384.08 46.3239 1392.5 46.3281V46.3281Z" fill="#FAAB09"/>
<path d="M1356.58 75.6858L1356.6 75.7091C1351.6 79.8893 1347.38 84.9172 1344.12 90.5625L1329.99 82.4141C1334.2 75.1219 1339.65 68.6218 1346.1 63.207L1356.58 75.6858Z" fill="#FAAB09"/>
<path d="M1337.46 108.792H1337.49C1336.34 115.213 1336.34 121.787 1337.49 128.208H1337.46L1321.42 131.025H1321.4C1319.97 122.736 1319.97 114.264 1321.4 105.975H1321.42L1337.46 108.792Z" fill="#FAAB09"/>
<path d="M1344.12 146.438C1347.38 152.083 1351.6 157.111 1356.6 161.291L1356.58 161.314L1346.1 173.793C1339.65 168.378 1334.2 161.878 1329.99 154.586L1344.12 146.438Z" fill="#FAAB09"/>
<path d="M1392.5 174.375V190.672C1384.08 190.676 1375.73 189.211 1367.82 186.341V186.318L1373.39 170.999C1379.51 173.241 1385.98 174.384 1392.5 174.375V174.375Z" fill="#FAAB09"/>
<path d="M1428.42 161.314L1438.9 173.793C1432.44 179.203 1425.09 183.45 1417.18 186.342V186.318L1411.61 170.999C1417.74 168.78 1423.42 165.493 1428.4 161.291L1428.42 161.314Z" fill="#FAAB09"/>
<path d="M1463.58 131.025H1463.6C1462.14 139.321 1459.23 147.295 1455.01 154.586L1440.88 146.437C1444.15 140.8 1446.39 134.629 1447.51 128.208H1447.54L1463.58 131.025Z" fill="#FAAB09"/>
<path d="M1463.6 105.975H1463.58L1447.54 108.792H1447.51C1446.39 102.371 1444.15 96.1997 1440.88 90.5625L1455.01 82.4141C1459.23 89.705 1462.14 97.6793 1463.6 105.975V105.975Z" fill="#FAAB09"/>
<path d="M1438.9 63.207L1428.42 75.6858L1428.4 75.7091C1423.42 71.507 1417.74 68.2201 1411.61 66.0008L1417.18 50.6817V50.6584C1425.09 53.5504 1432.44 57.7965 1438.9 63.207V63.207Z" fill="#FAAB09"/>
<path d="M1392.5 62.625C1381.45 62.625 1370.65 65.902 1361.46 72.0416C1352.27 78.1813 1345.11 86.9077 1340.88 97.1176C1336.65 107.327 1335.54 118.562 1337.7 129.401C1339.85 140.239 1345.18 150.195 1352.99 158.01C1360.8 165.824 1370.76 171.145 1381.6 173.301C1392.44 175.457 1403.67 174.351 1413.88 170.122C1424.09 165.893 1432.82 158.731 1438.96 149.542C1445.1 140.354 1448.38 129.551 1448.38 118.5C1448.38 103.681 1442.49 89.469 1432.01 78.9904C1421.53 68.5118 1407.32 62.625 1392.5 62.625V62.625ZM1392.5 167.391C1382.83 167.391 1373.38 164.523 1365.34 159.151C1357.3 153.779 1351.03 146.143 1347.33 137.21C1343.63 128.276 1342.66 118.446 1344.55 108.962C1346.44 99.4781 1351.09 90.7666 1357.93 83.9291C1364.77 77.0916 1373.48 72.4353 1382.96 70.5488C1392.45 68.6623 1402.28 69.6305 1411.21 73.331C1420.14 77.0314 1427.78 83.2978 1433.15 91.3378C1438.52 99.3778 1441.39 108.83 1441.39 118.5C1441.39 131.467 1436.24 143.902 1427.07 153.071C1417.9 162.24 1405.47 167.391 1392.5 167.391Z" fill="#5C2E96"/>
<path d="M1356.6 75.709C1361.58 71.5069 1367.26 68.22 1373.39 66.0007L1371.78 61.6075C1365.15 64.0283 1358.99 67.5922 1353.59 72.1377L1356.57 75.6857L1356.6 75.709Z" fill="#FAAB09"/>
<path d="M1337.49 108.792C1338.6 102.371 1340.85 96.1997 1344.12 90.5625L1340.09 88.2344C1336.55 94.3462 1334.12 101.034 1332.9 107.991L1337.47 108.792H1337.49Z" fill="#FAAB09"/>
<path d="M1337.49 128.208H1337.46L1332.9 129.009C1334.12 135.966 1336.55 142.654 1340.09 148.766L1344.12 146.437C1340.85 140.8 1338.6 134.629 1337.49 128.208V128.208Z" fill="#FAAB09"/>
<path d="M1356.6 161.291L1356.58 161.314L1353.6 164.862C1359 169.407 1365.15 172.971 1371.78 175.392L1373.38 170.999C1367.26 168.779 1361.58 165.492 1356.6 161.291V161.291Z" fill="#FAAB09"/>
<path d="M1392.5 174.375V179.031C1399.57 179.04 1406.58 177.808 1413.22 175.392L1411.61 170.999C1405.49 173.241 1399.02 174.384 1392.5 174.375V174.375Z" fill="#FAAB09"/>
<path d="M1428.4 161.291L1428.42 161.314L1431.4 164.862C1436.81 160.322 1441.38 154.875 1444.91 148.766L1440.88 146.438C1437.62 152.083 1433.4 157.111 1428.4 161.291V161.291Z" fill="#FAAB09"/>
<path d="M1447.51 108.792C1448.66 115.213 1448.66 121.787 1447.51 128.208H1447.54L1452.1 129.009C1453.34 122.058 1453.34 114.942 1452.1 107.991L1447.54 108.792H1447.51Z" fill="#FAAB09"/>
<path d="M1411.61 66.0008L1413.22 61.6077C1406.58 59.1918 1399.57 57.9602 1392.5 57.9688V62.625C1399.02 62.6164 1405.49 63.7592 1411.61 66.0008V66.0008Z" fill="#FAAB09"/>
<path d="M1428.4 75.709C1433.4 79.8893 1437.62 84.9172 1440.88 90.5625L1444.91 88.2344C1441.38 82.1244 1436.81 76.6766 1431.41 72.1354L1428.42 75.6858L1428.4 75.709Z" fill="#FAAB09"/>
<path d="M1392.5 62.625V57.9688C1385.43 57.9602 1378.42 59.1918 1371.78 61.6077L1373.39 66.0008C1379.51 63.7592 1385.98 62.6164 1392.5 62.625V62.625Z" fill="#F08400"/>
<path d="M1356.6 75.709L1356.58 75.6858L1353.6 72.1377C1348.19 76.6776 1343.62 82.1247 1340.09 88.2344L1344.12 90.5625C1347.38 84.9172 1351.6 79.8893 1356.6 75.709V75.709Z" fill="#F08400"/>
<path d="M1337.49 128.208C1336.34 121.787 1336.34 115.213 1337.49 108.792H1337.46L1332.9 107.991C1331.66 114.942 1331.66 122.058 1332.9 129.009L1337.46 128.208H1337.49Z" fill="#F08400"/>
<path d="M1356.6 161.291C1351.6 157.111 1347.38 152.083 1344.12 146.438L1340.09 148.766C1343.62 154.876 1348.19 160.323 1353.59 164.865L1356.57 161.317L1356.6 161.291Z" fill="#F08400"/>
<path d="M1373.39 170.999L1371.78 175.392C1378.42 177.808 1385.43 179.04 1392.5 179.031V174.375C1385.98 174.384 1379.51 173.241 1373.39 170.999V170.999Z" fill="#F08400"/>
<path d="M1428.4 161.291C1423.42 165.493 1417.74 168.78 1411.61 170.999L1413.21 175.392C1419.84 172.972 1426 169.408 1431.4 164.862L1428.42 161.314L1428.4 161.291Z" fill="#F08400"/>
<path d="M1447.51 128.208C1446.39 134.629 1444.15 140.8 1440.88 146.437L1444.91 148.766C1448.45 142.654 1450.88 135.966 1452.1 129.009L1447.54 128.208H1447.51Z" fill="#F08400"/>
<path d="M1440.88 90.5625C1444.15 96.1997 1446.39 102.371 1447.51 108.792H1447.54L1452.1 107.991C1450.89 101.034 1448.45 94.346 1444.91 88.2344L1440.88 90.5625Z" fill="#F08400"/>
<path d="M1428.4 75.709L1428.42 75.6857L1431.4 72.1377C1426 67.5931 1419.85 64.0292 1413.22 61.6075L1411.61 66.0007C1417.74 68.22 1423.42 71.5069 1428.4 75.709V75.709Z" fill="#F08400"/>
<path d="M1369.41 55.04L1367.82 50.6817V50.6584C1359.91 53.5504 1352.56 57.7965 1346.1 63.207L1349.11 66.7877C1355.14 61.717 1362.01 57.7411 1369.41 55.04V55.04Z" fill="#FFF382"/>
<path d="M1326.02 106.783C1327.38 99.0218 1330.09 91.561 1334.04 84.7422L1329.99 82.4141C1325.77 89.705 1322.86 97.6793 1321.4 105.975H1321.42L1326.02 106.783Z" fill="#FFF382"/>
<path d="M1326.02 130.217L1321.42 131.025H1321.4C1322.86 139.321 1325.77 147.295 1329.99 154.586L1334.04 152.258C1330.09 145.439 1327.38 137.978 1326.02 130.217V130.217Z" fill="#FFF382"/>
<path d="M1369.41 181.96C1362.01 179.259 1355.14 175.283 1349.11 170.212L1346.1 173.793C1352.56 179.203 1359.91 183.45 1367.82 186.342V186.318L1369.41 181.96Z" fill="#FFF382"/>
<path d="M1415.59 181.96C1408.19 184.651 1400.38 186.023 1392.5 186.016V190.672C1400.92 190.676 1409.27 189.211 1417.18 186.342V186.318L1415.59 181.96Z" fill="#FFF382"/>
<path d="M1435.89 170.212L1438.9 173.793C1445.35 168.378 1450.8 161.878 1455.01 154.586L1450.96 152.258C1447.02 159.072 1441.92 165.148 1435.89 170.212V170.212Z" fill="#FFF382"/>
<path d="M1463.6 105.975H1463.58L1458.98 106.783C1460.36 114.533 1460.36 122.467 1458.98 130.217L1463.58 131.025H1463.6C1465.03 122.736 1465.03 114.264 1463.6 105.975V105.975Z" fill="#FFF382"/>
<path d="M1415.59 55.04L1417.18 50.6817V50.6584C1409.27 47.7893 1400.92 46.3239 1392.5 46.3281V50.9844C1400.38 50.9769 1408.19 52.3495 1415.59 55.04Z" fill="#FFF382"/>
<path d="M1450.96 84.7422L1455.01 82.4141C1450.8 75.1219 1445.35 68.6218 1438.9 63.207L1435.89 66.7877C1441.92 71.852 1447.02 77.9277 1450.96 84.7422V84.7422Z" fill="#FFF382"/>
<path d="M1369.4 55.04C1376.81 52.3495 1384.62 50.9769 1392.5 50.9844V46.3281C1384.08 46.3239 1375.73 47.7893 1367.82 50.6584V50.6817L1369.4 55.04Z" fill="#F6D049"/>
<path d="M1349.11 66.7877L1346.1 63.207C1339.65 68.6218 1334.2 75.1219 1329.99 82.4141L1334.04 84.7422C1337.98 77.9277 1343.08 71.852 1349.11 66.7877V66.7877Z" fill="#F6D049"/>
<path d="M1326.02 130.217C1324.64 122.467 1324.64 114.533 1326.02 106.783L1321.42 105.975H1321.4C1319.97 114.264 1319.97 122.736 1321.4 131.025H1321.42L1326.02 130.217Z" fill="#F6D049"/>
<path d="M1334.04 152.258L1329.99 154.586C1334.2 161.878 1339.65 168.378 1346.1 173.793L1349.11 170.212C1343.08 165.148 1337.98 159.072 1334.04 152.258V152.258Z" fill="#F6D049"/>
<path d="M1369.4 181.96L1367.82 186.318V186.342C1375.73 189.211 1384.08 190.676 1392.5 190.672V186.016C1384.62 186.023 1376.81 184.651 1369.4 181.96V181.96Z" fill="#F6D049"/>
<path d="M1415.6 181.96L1417.18 186.318V186.342C1425.09 183.45 1432.44 179.203 1438.9 173.793L1435.89 170.212C1429.86 175.283 1422.99 179.259 1415.6 181.96Z" fill="#F6D049"/>
<path d="M1458.98 130.217C1457.62 137.978 1454.91 145.439 1450.96 152.258L1455.01 154.586C1459.23 147.295 1462.14 139.321 1463.6 131.025H1463.58L1458.98 130.217Z" fill="#F6D049"/>
<path d="M1458.98 106.783L1463.58 105.975H1463.6C1462.14 97.6793 1459.23 89.705 1455.01 82.4141L1450.96 84.7422C1454.91 91.561 1457.62 99.0218 1458.98 106.783V106.783Z" fill="#F6D049"/>
<path d="M1415.6 55.04C1422.99 57.7411 1429.86 61.717 1435.89 66.7877L1438.9 63.207C1432.44 57.7965 1425.09 53.5504 1417.18 50.6584V50.6817L1415.6 55.04Z" fill="#F6D049"/>
<path d="M1392.5 44C1377.77 44 1363.36 48.3693 1351.11 56.5555C1338.86 64.7417 1329.31 76.377 1323.67 89.9901C1318.03 103.603 1316.56 118.583 1319.43 133.034C1322.31 147.486 1329.4 160.76 1339.82 171.179C1350.24 181.598 1363.51 188.694 1377.97 191.569C1392.42 194.443 1407.4 192.968 1421.01 187.329C1434.62 181.69 1446.26 172.141 1454.44 159.89C1462.63 147.639 1467 133.235 1467 118.5C1466.98 98.7482 1459.12 79.8117 1445.15 65.845C1431.19 51.8784 1412.25 44.0222 1392.5 44V44ZM1462.34 118.5C1462.34 121.788 1462.11 125.072 1461.65 128.327L1450.17 126.306C1450.89 121.127 1450.89 115.873 1450.17 110.694L1461.65 108.673C1462.11 111.928 1462.34 115.212 1462.34 118.5V118.5ZM1370.43 172.343L1366.44 183.285C1360.34 180.819 1354.62 177.502 1349.45 173.434L1356.93 164.52C1361.06 167.721 1365.6 170.352 1370.43 172.343V172.343ZM1374.8 173.942C1379.78 175.533 1384.95 176.442 1390.17 176.645V188.286C1383.59 188.072 1377.07 186.926 1370.82 184.882L1374.8 173.942ZM1394.83 176.645C1400.05 176.442 1405.22 175.532 1410.19 173.942L1414.18 184.884C1407.92 186.927 1401.41 188.073 1394.83 188.286V176.645ZM1414.57 172.343C1419.4 170.351 1423.95 167.719 1428.08 164.518L1435.56 173.444C1430.38 177.512 1424.66 180.828 1418.56 183.294L1414.57 172.343ZM1392.5 172.047C1381.91 172.047 1371.56 168.906 1362.75 163.023C1353.95 157.139 1347.08 148.776 1343.03 138.992C1338.98 129.207 1337.92 118.441 1339.98 108.054C1342.05 97.6664 1347.15 88.1253 1354.64 80.6366C1362.13 73.148 1371.67 68.0481 1382.05 65.982C1392.44 63.9159 1403.21 64.9763 1412.99 69.0291C1422.78 73.082 1431.14 79.9452 1437.02 88.7509C1442.91 97.5567 1446.05 107.909 1446.05 118.5C1446.03 132.697 1440.39 146.308 1430.35 156.346C1420.31 166.385 1406.7 172.031 1392.5 172.047ZM1322.66 118.5C1322.66 115.212 1322.89 111.928 1323.35 108.673L1334.83 110.694C1334.11 115.873 1334.11 121.127 1334.83 126.306L1323.35 128.327C1322.89 125.072 1322.66 121.788 1322.66 118.5V118.5ZM1335.64 106.11L1324.16 104.087C1325.52 97.6428 1327.79 91.4261 1330.91 85.6245L1341 91.4449C1338.56 96.0684 1336.75 101.002 1335.64 106.11V106.11ZM1335.64 130.89C1336.75 135.999 1338.55 140.933 1340.99 145.557L1330.9 151.378C1327.79 145.576 1325.51 139.36 1324.15 132.916L1335.64 130.89ZM1414.57 64.6575L1418.56 53.7153C1424.66 56.1814 1430.38 59.4976 1435.55 63.5656L1428.07 72.48C1423.94 69.2794 1419.4 66.6484 1414.57 64.6575V64.6575ZM1410.19 63.058C1405.22 61.4675 1400.05 60.5583 1394.83 60.3551V48.7145C1401.41 48.9276 1407.93 50.0736 1414.18 52.1182L1410.19 63.058ZM1390.17 60.3551C1384.95 60.5583 1379.78 61.4675 1374.81 63.058L1370.82 52.1158C1377.08 50.0727 1383.59 48.9275 1390.17 48.7145V60.3551ZM1370.43 64.6575C1365.6 66.6487 1361.05 69.2806 1356.92 72.4823L1349.44 63.5562C1354.62 59.4883 1360.34 56.172 1366.44 53.706L1370.43 64.6575ZM1444.01 91.4472L1454.1 85.6269C1457.21 91.4291 1459.48 97.6457 1460.84 104.089L1449.36 106.112C1448.25 101.005 1446.45 96.0714 1444.01 91.4472V91.4472ZM1449.37 130.89L1460.84 132.913C1459.49 139.357 1457.22 145.573 1454.1 151.375L1444.02 145.555C1446.45 140.931 1448.25 135.998 1449.36 130.89H1449.37ZM1451.76 81.5969L1441.68 87.4172C1438.88 83.0043 1435.51 78.9846 1431.65 75.4646L1439.13 66.5525C1444.02 70.9523 1448.27 76.0164 1451.76 81.5969H1451.76ZM1345.87 66.5549L1353.35 75.4669C1349.49 78.9869 1346.12 83.0067 1343.33 87.4195L1333.24 81.5992C1336.73 76.0185 1340.98 70.9544 1345.87 66.5549V66.5549ZM1333.24 155.403L1343.33 149.583C1346.12 153.996 1349.49 158.015 1353.35 161.535L1345.87 170.447C1340.98 166.048 1336.73 160.984 1333.24 155.403V155.403ZM1439.13 170.445L1431.65 161.533C1435.51 158.013 1438.88 153.993 1441.67 149.58L1451.76 155.401C1448.27 160.982 1444.02 166.046 1439.13 170.445V170.445Z" fill="black"/>
<path d="M1439.06 118.5C1439.06 130.849 1434.16 142.692 1425.42 151.425C1416.69 160.157 1404.85 165.062 1392.5 165.062C1380.15 165.062 1368.31 160.157 1359.58 151.425C1350.84 142.692 1345.94 130.849 1345.94 118.5H1341.28C1341.28 132.084 1346.68 145.112 1356.28 154.717C1365.89 164.323 1378.92 169.719 1392.5 169.719C1406.08 169.719 1419.11 164.323 1428.72 154.717C1438.32 145.112 1443.72 132.084 1443.72 118.5H1439.06Z" fill="black"/>
<path d="M1392.5 71.9375C1404.1 71.8832 1415.29 76.1802 1423.87 83.9795C1432.46 91.7789 1437.8 102.513 1438.86 114.063L1443.49 113.625C1442.33 100.922 1436.45 89.1162 1427.01 80.5367C1417.57 71.9573 1405.26 67.2277 1392.5 67.2812C1381.48 67.327 1370.76 70.9051 1361.93 77.4903C1353.09 84.0754 1346.6 93.3204 1343.4 103.868L1347.86 105.195C1350.77 95.6066 1356.67 87.2026 1364.71 81.2168C1372.74 75.2309 1382.48 71.9786 1392.5 71.9375V71.9375Z" fill="black"/>
<path d="M1346.78 109.627L1342.21 108.747C1341.91 110.338 1341.67 111.979 1341.51 113.623L1346.15 114.065C1346.29 112.568 1346.5 111.078 1346.78 109.627V109.627Z" fill="black"/>
<path d="M1365.78 113.56L1391.38 127.528C1391.73 127.715 1392.11 127.813 1392.5 127.813C1392.89 127.813 1393.27 127.715 1393.62 127.528L1419.22 113.56C1419.52 113.401 1419.77 113.182 1419.97 112.916C1420.17 112.651 1420.31 112.346 1420.38 112.022C1420.46 111.698 1420.46 111.362 1420.39 111.037C1420.32 110.712 1420.18 110.405 1419.99 110.137L1394.38 75.2155C1394.15 74.9359 1393.87 74.7104 1393.54 74.5555C1393.22 74.4006 1392.86 74.3202 1392.5 74.3202C1392.14 74.3202 1391.78 74.4006 1391.46 74.5555C1391.13 74.7104 1390.85 74.9359 1390.62 75.2155L1365.01 110.137C1364.82 110.405 1364.68 110.712 1364.61 111.037C1364.54 111.362 1364.54 111.698 1364.62 112.022C1364.69 112.346 1364.83 112.651 1365.03 112.916C1365.23 113.182 1365.48 113.401 1365.78 113.56V113.56ZM1390.17 121.564L1371.75 111.516L1390.17 101.467V121.564ZM1394.83 101.467L1413.25 111.516L1394.83 121.564V101.467ZM1394.83 96.164V83.7062L1410.06 104.471L1394.83 96.164ZM1390.17 96.164L1374.94 104.471L1390.17 83.7062V96.164Z" fill="black"/>
<path d="M1364.93 122.092L1390.54 161.67C1390.76 161.997 1391.04 162.266 1391.39 162.452C1391.73 162.638 1392.11 162.735 1392.5 162.735C1392.89 162.735 1393.27 162.638 1393.61 162.452C1393.95 162.266 1394.24 161.997 1394.46 161.67L1420.06 122.092C1420.35 121.657 1420.47 121.141 1420.43 120.625C1420.39 120.109 1420.17 119.623 1419.82 119.243C1419.46 118.863 1419 118.612 1418.48 118.529C1417.97 118.446 1417.45 118.536 1416.99 118.784L1392.5 132.145L1368.01 118.784C1367.55 118.536 1367.03 118.446 1366.52 118.529C1366 118.612 1365.54 118.863 1365.18 119.243C1364.83 119.623 1364.61 120.109 1364.57 120.625C1364.52 121.141 1364.65 121.657 1364.93 122.092ZM1394.83 152.523V136.18L1411.17 127.265L1394.83 152.523ZM1390.17 136.18V152.523L1373.83 127.265L1390.17 136.18Z" fill="black"/>
</g>
<path d="M283.07 415.5L198.93 445.5L195.74 456.65C191.21 472.52 174 485.5 157.5 485.5H324.5L283.07 415.5Z" fill="#ADACA7"/>
<path d="M316.26 456.65L304.5 415.5L256 385.5L207.5 415.5L198.93 445.5H283.07L286.26 456.65C290.79 472.52 308 485.5 324.5 485.5H354.5C338 485.5 320.79 472.52 316.26 456.65Z" fill="#8F8F8B"/>
<path d="M444.5 415.5H474.5C491 415.5 504.5 402 504.5 385.5V325.5L444.5 265.5V415.5Z" fill="#ADACA7"/>
<path d="M7.5 385.5C7.5 402 21 415.5 37.5 415.5H444.5C461 415.5 474.5 402 474.5 385.5V205.5L7.5 325.5V385.5Z" fill="#CBC9C2"/>
<path d="M474.5 25.5H444.5L474.5 325.5H504.5V55.5C504.5 39 491 25.5 474.5 25.5Z" fill="#404242"/>
<path d="M474.5 55.5C474.5 39 461 25.5 444.5 25.5H37.5C21 25.5 7.5 39 7.5 55.5V325.5H474.5V295.5L256 175.487L474.5 55.5Z" fill="#565959"/>
<path d="M474.5 55.495L444.506 55.474C444.506 55.479 256 175.487 256 175.487C256 175.487 444.502 295.498 444.5 295.5L474.499 295.48C474.5 295.48 474.497 55.499 474.5 55.495V55.495Z" fill="#4B88D5"/>
<path d="M444.5 55.495L37.588 55.473C37.563 55.485 37.542 295.495 37.5 295.5C37.5 295.5 444.48 295.48 444.49 295.48C444.495 295.48 444.458 55.499 444.5 55.495V55.495Z" fill="#69A7FF"/>
<path d="M256 385.5C264.284 385.5 271 378.784 271 370.5C271 362.216 264.284 355.5 256 355.5C247.716 355.5 241 362.216 241 370.5C241 378.784 247.716 385.5 256 385.5Z" fill="white"/>
<path d="M474.5 18H37.5C16.822 18 0 34.822 0 55.5V385.5C0 406.178 16.822 423 37.5 423H197.557L188.53 454.594C184.905 467.282 170.695 478 157.5 478H101C96.858 478 93.5 481.357 93.5 485.5C93.5 489.643 96.858 493 101 493H411C415.142 493 418.5 489.643 418.5 485.5C418.5 481.357 415.142 478 411 478H354.5C341.305 478 327.095 467.281 323.47 454.594L314.443 423H474.5C495.178 423 512 406.178 512 385.5V55.5C512 34.822 495.178 18 474.5 18ZM37.5 33H474.5C486.907 33 497 43.094 497 55.5V318H15V55.5C15 43.094 25.093 33 37.5 33ZM309.047 458.715C311.105 465.92 315.196 472.539 320.559 478H191.441C196.804 472.539 200.895 465.919 202.953 458.715L213.157 423H298.842L309.047 458.715ZM474.5 408H37.5C25.093 408 15 397.906 15 385.5V333H497V385.5C497 397.906 486.907 408 474.5 408Z" fill="black"/>
<path d="M37.5 303H474.5C478.642 303 482 299.643 482 295.5V55.5C482 51.357 478.642 48 474.5 48H37.5C33.358 48 30 51.357 30 55.5V160.5C30 164.643 33.358 168 37.5 168C41.642 168 45 164.643 45 160.5V63H467V288H45V190.5C45 186.357 41.642 183 37.5 183C33.358 183 30 186.357 30 190.5V295.5C30 299.643 33.358 303 37.5 303Z" fill="black"/>
<path d="M256 348C243.593 348 233.5 358.094 233.5 370.5C233.5 382.906 243.593 393 256 393C268.407 393 278.5 382.906 278.5 370.5C278.5 358.094 268.407 348 256 348ZM256 378C251.864 378 248.5 374.636 248.5 370.5C248.5 366.364 251.864 363 256 363C260.136 363 263.5 366.364 263.5 370.5C263.5 374.636 260.136 378 256 378Z" fill="black"/>
<path d="M561.636 354.99C557.776 354.79 554.809 351.497 555.009 347.636L558.282 284.721C558.483 280.86 561.776 277.894 565.637 278.094C569.497 278.295 572.464 281.588 572.264 285.449L569.354 341.373L625.279 344.282C629.139 344.483 632.106 347.776 631.905 351.636C631.705 355.497 628.412 358.464 624.551 358.263L561.636 354.99ZM1180.92 352.812C1064.59 229.923 973.809 174.837 881.814 176.99C789.455 179.153 693.447 238.976 566.686 353.2L557.314 342.8C684.054 228.594 783.496 165.288 881.486 162.994C979.841 160.691 1074.31 219.82 1191.08 343.188L1180.92 352.812Z" fill="black"/>
<path d="M730.309 116V76.0234H736.844V116H730.309ZM772.227 116H765.773V97.3516C765.773 95.0365 765.336 93.3138 764.461 92.1836C763.586 91.0352 762.219 90.4609 760.359 90.4609C757.88 90.4609 756.057 91.2721 754.891 92.8945C753.742 94.4987 753.168 97.1784 753.168 100.934V116H746.742V85.7578H751.773L752.676 89.7227H753.004C753.842 88.2826 755.055 87.1706 756.641 86.3867C758.245 85.6029 760.004 85.2109 761.918 85.2109C766.566 85.2109 769.647 86.7969 771.16 89.9688H771.598C772.491 88.474 773.749 87.3073 775.371 86.4688C776.993 85.6302 778.853 85.2109 780.949 85.2109C784.559 85.2109 787.184 86.1224 788.824 87.9453C790.483 89.7682 791.312 92.5482 791.312 96.2852V116H784.887V97.3516C784.887 95.0365 784.44 93.3138 783.547 92.1836C782.672 91.0352 781.305 90.4609 779.445 90.4609C776.948 90.4609 775.116 91.2448 773.949 92.8125C772.801 94.362 772.227 96.75 772.227 99.9766V116ZM815.621 116.547C811.793 116.547 808.822 115.171 806.707 112.418H806.324C806.579 114.97 806.707 116.52 806.707 117.066V129.453H800.281V85.7578H805.477C805.622 86.3229 805.923 87.6719 806.379 89.8047H806.707C808.712 86.7422 811.72 85.2109 815.73 85.2109C819.504 85.2109 822.439 86.5781 824.535 89.3125C826.65 92.0469 827.707 95.8841 827.707 100.824C827.707 105.764 826.632 109.62 824.48 112.391C822.348 115.161 819.395 116.547 815.621 116.547ZM814.062 90.4609C811.51 90.4609 809.642 91.2083 808.457 92.7031C807.29 94.1979 806.707 96.5859 806.707 99.8672V100.824C806.707 104.507 807.29 107.177 808.457 108.836C809.624 110.477 811.529 111.297 814.172 111.297C816.396 111.297 818.109 110.385 819.312 108.562C820.516 106.74 821.117 104.142 821.117 100.77C821.117 97.3789 820.516 94.8177 819.312 93.0859C818.128 91.3359 816.378 90.4609 814.062 90.4609ZM861.996 100.824C861.996 105.764 860.729 109.62 858.195 112.391C855.661 115.161 852.134 116.547 847.613 116.547C844.788 116.547 842.29 115.909 840.121 114.633C837.952 113.357 836.284 111.525 835.117 109.137C833.951 106.749 833.367 103.978 833.367 100.824C833.367 95.9206 834.625 92.0924 837.141 89.3398C839.656 86.5872 843.202 85.2109 847.777 85.2109C852.152 85.2109 855.616 86.6237 858.168 89.4492C860.72 92.2565 861.996 96.0482 861.996 100.824ZM839.984 100.824C839.984 107.806 842.564 111.297 847.723 111.297C852.827 111.297 855.379 107.806 855.379 100.824C855.379 93.9154 852.809 90.4609 847.668 90.4609C844.97 90.4609 843.01 91.3542 841.789 93.1406C840.586 94.9271 839.984 97.4883 839.984 100.824ZM884.746 85.2109C886.04 85.2109 887.107 85.3021 887.945 85.4844L887.316 91.4727C886.405 91.2539 885.457 91.1445 884.473 91.1445C881.902 91.1445 879.815 91.9831 878.211 93.6602C876.625 95.3372 875.832 97.5156 875.832 100.195V116H869.406V85.7578H874.438L875.285 91.0898H875.613C876.616 89.2852 877.919 87.8542 879.523 86.7969C881.146 85.7396 882.887 85.2109 884.746 85.2109ZM904.844 111.352C906.411 111.352 907.979 111.105 909.547 110.613V115.453C908.836 115.763 907.915 116.018 906.785 116.219C905.673 116.438 904.516 116.547 903.312 116.547C897.224 116.547 894.18 113.339 894.18 106.922V90.625H890.051V87.7812L894.48 85.4297L896.668 79.0312H900.633V85.7578H909.246V90.625H900.633V106.812C900.633 108.362 901.016 109.51 901.781 110.258C902.565 110.987 903.586 111.352 904.844 111.352ZM961.363 116H953.789L941.238 97.8984L937.383 101.043V116H930.848V76.0234H937.383V95.1094C939.169 92.9219 940.947 90.8164 942.715 88.793L953.516 76.0234H960.953C953.971 84.2266 948.967 90.069 945.941 93.5508L961.363 116ZM979.191 116.547C974.488 116.547 970.806 115.18 968.145 112.445C965.501 109.693 964.18 105.91 964.18 101.098C964.18 96.1576 965.41 92.2747 967.871 89.4492C970.332 86.6237 973.714 85.2109 978.016 85.2109C982.008 85.2109 985.161 86.4232 987.477 88.8477C989.792 91.2721 990.949 94.6081 990.949 98.8555V102.328H970.797C970.888 105.263 971.681 107.523 973.176 109.109C974.671 110.677 976.776 111.461 979.492 111.461C981.279 111.461 982.938 111.297 984.469 110.969C986.018 110.622 987.677 110.057 989.445 109.273V114.496C987.878 115.243 986.292 115.772 984.688 116.082C983.083 116.392 981.251 116.547 979.191 116.547ZM978.016 90.0781C975.974 90.0781 974.333 90.7253 973.094 92.0195C971.872 93.3138 971.143 95.2005 970.906 97.6797H984.633C984.596 95.1823 983.995 93.2956 982.828 92.0195C981.661 90.7253 980.057 90.0781 978.016 90.0781ZM993.656 85.7578H1000.66L1006.81 102.902C1007.74 105.345 1008.36 107.642 1008.67 109.793H1008.89C1009.05 108.79 1009.35 107.578 1009.79 106.156C1010.23 104.716 1012.54 97.9167 1016.73 85.7578H1023.68L1010.75 120.02C1008.39 126.309 1004.48 129.453 998.988 129.453C997.566 129.453 996.181 129.298 994.832 128.988V123.902C995.798 124.121 996.901 124.23 998.141 124.23C1001.24 124.23 1003.42 122.435 1004.68 118.844L1005.8 116L993.656 85.7578ZM1048.59 107.387C1048.59 110.34 1047.51 112.609 1045.36 114.195C1043.21 115.763 1040.13 116.547 1036.12 116.547C1032.09 116.547 1028.86 115.936 1026.41 114.715V109.164C1029.97 110.805 1033.28 111.625 1036.34 111.625C1040.3 111.625 1042.27 110.431 1042.27 108.043C1042.27 107.277 1042.05 106.639 1041.62 106.129C1041.18 105.618 1040.46 105.09 1039.46 104.543C1038.45 103.996 1037.06 103.376 1035.27 102.684C1031.79 101.335 1029.43 99.9857 1028.19 98.6367C1026.97 97.2878 1026.36 95.5378 1026.36 93.3867C1026.36 90.7982 1027.4 88.793 1029.48 87.3711C1031.57 85.931 1034.42 85.2109 1038.01 85.2109C1041.56 85.2109 1044.93 85.931 1048.1 87.3711L1046.02 92.2109C1042.76 90.862 1040.01 90.1875 1037.79 90.1875C1034.4 90.1875 1032.7 91.1536 1032.7 93.0859C1032.7 94.0339 1033.14 94.8359 1034.02 95.4922C1034.91 96.1484 1036.84 97.0508 1039.81 98.1992C1042.31 99.1654 1044.12 100.049 1045.25 100.852C1046.38 101.654 1047.22 102.583 1047.77 103.641C1048.32 104.68 1048.59 105.928 1048.59 107.387Z" fill="black"/>
<path d="M75.2578 554.023H82.0391L68.0391 594H61.1484L47.2031 554.023H53.9297L62.2695 578.879C62.707 580.064 63.1719 581.595 63.6641 583.473C64.1562 585.332 64.4753 586.717 64.6211 587.629C64.8581 586.243 65.2227 584.639 65.7148 582.816C66.207 580.993 66.6081 579.645 66.918 578.77L75.2578 554.023ZM105.555 594L104.27 589.789H104.051C102.592 591.63 101.125 592.888 99.6484 593.562C98.1719 594.219 96.276 594.547 93.9609 594.547C90.9896 594.547 88.6654 593.745 86.9883 592.141C85.3294 590.536 84.5 588.267 84.5 585.332C84.5 582.215 85.6576 579.863 87.9727 578.277C90.2878 576.691 93.8151 575.826 98.5547 575.68L103.777 575.516V573.902C103.777 571.97 103.322 570.53 102.41 569.582C101.517 568.616 100.122 568.133 98.2266 568.133C96.6771 568.133 95.1914 568.361 93.7695 568.816C92.3477 569.272 90.9805 569.81 89.668 570.43L87.5898 565.836C89.2305 564.979 91.026 564.332 92.9766 563.895C94.9271 563.439 96.7682 563.211 98.5 563.211C102.346 563.211 105.245 564.049 107.195 565.727C109.164 567.404 110.148 570.038 110.148 573.629V594H105.555ZM95.9844 589.625C98.3177 589.625 100.186 588.978 101.59 587.684C103.012 586.371 103.723 584.539 103.723 582.188V579.562L99.8398 579.727C96.8138 579.836 94.6081 580.346 93.2227 581.258C91.8555 582.151 91.1719 583.527 91.1719 585.387C91.1719 586.736 91.5729 587.784 92.375 588.531C93.1771 589.26 94.3802 589.625 95.9844 589.625ZM125.543 594H119.117V551.453H125.543V594ZM141.184 594H134.758V563.758H141.184V594ZM134.375 555.746C134.375 554.598 134.685 553.714 135.305 553.094C135.943 552.474 136.845 552.164 138.012 552.164C139.142 552.164 140.017 552.474 140.637 553.094C141.275 553.714 141.594 554.598 141.594 555.746C141.594 556.84 141.275 557.706 140.637 558.344C140.017 558.964 139.142 559.273 138.012 559.273C136.845 559.273 135.943 558.964 135.305 558.344C134.685 557.706 134.375 556.84 134.375 555.746ZM160.598 594.547C156.824 594.547 153.88 593.18 151.766 590.445C149.651 587.711 148.594 583.874 148.594 578.934C148.594 573.975 149.66 570.12 151.793 567.367C153.944 564.596 156.915 563.211 160.707 563.211C164.681 563.211 167.707 564.678 169.785 567.613H170.113C169.803 565.444 169.648 563.73 169.648 562.473V551.453H176.102V594H171.07L169.949 590.035H169.648C167.589 593.043 164.572 594.547 160.598 594.547ZM162.32 589.352C164.964 589.352 166.887 588.613 168.09 587.137C169.293 585.642 169.913 583.227 169.949 579.891V578.988C169.949 575.178 169.329 572.471 168.09 570.867C166.85 569.263 164.909 568.461 162.266 568.461C160.005 568.461 158.264 569.382 157.043 571.223C155.822 573.046 155.211 575.652 155.211 579.043C155.211 582.397 155.803 584.958 156.988 586.727C158.173 588.477 159.951 589.352 162.32 589.352ZM204.211 594L202.926 589.789H202.707C201.249 591.63 199.781 592.888 198.305 593.562C196.828 594.219 194.932 594.547 192.617 594.547C189.646 594.547 187.322 593.745 185.645 592.141C183.986 590.536 183.156 588.267 183.156 585.332C183.156 582.215 184.314 579.863 186.629 578.277C188.944 576.691 192.471 575.826 197.211 575.68L202.434 575.516V573.902C202.434 571.97 201.978 570.53 201.066 569.582C200.173 568.616 198.779 568.133 196.883 568.133C195.333 568.133 193.848 568.361 192.426 568.816C191.004 569.272 189.637 569.81 188.324 570.43L186.246 565.836C187.887 564.979 189.682 564.332 191.633 563.895C193.583 563.439 195.424 563.211 197.156 563.211C201.003 563.211 203.901 564.049 205.852 565.727C207.82 567.404 208.805 570.038 208.805 573.629V594H204.211ZM194.641 589.625C196.974 589.625 198.842 588.978 200.246 587.684C201.668 586.371 202.379 584.539 202.379 582.188V579.562L198.496 579.727C195.47 579.836 193.264 580.346 191.879 581.258C190.512 582.151 189.828 583.527 189.828 585.387C189.828 586.736 190.229 587.784 191.031 588.531C191.833 589.26 193.036 589.625 194.641 589.625ZM229.039 589.352C230.607 589.352 232.174 589.105 233.742 588.613V593.453C233.031 593.763 232.111 594.018 230.98 594.219C229.868 594.438 228.711 594.547 227.508 594.547C221.419 594.547 218.375 591.339 218.375 584.922V568.625H214.246V565.781L218.676 563.43L220.863 557.031H224.828V563.758H233.441V568.625H224.828V584.812C224.828 586.362 225.211 587.51 225.977 588.258C226.76 588.987 227.781 589.352 229.039 589.352ZM266.637 578.824C266.637 583.764 265.37 587.62 262.836 590.391C260.302 593.161 256.775 594.547 252.254 594.547C249.428 594.547 246.931 593.909 244.762 592.633C242.592 591.357 240.924 589.525 239.758 587.137C238.591 584.749 238.008 581.978 238.008 578.824C238.008 573.921 239.266 570.092 241.781 567.34C244.297 564.587 247.842 563.211 252.418 563.211C256.793 563.211 260.257 564.624 262.809 567.449C265.361 570.257 266.637 574.048 266.637 578.824ZM244.625 578.824C244.625 585.806 247.204 589.297 252.363 589.297C257.467 589.297 260.02 585.806 260.02 578.824C260.02 571.915 257.449 568.461 252.309 568.461C249.611 568.461 247.651 569.354 246.43 571.141C245.227 572.927 244.625 575.488 244.625 578.824ZM289.387 563.211C290.681 563.211 291.747 563.302 292.586 563.484L291.957 569.473C291.046 569.254 290.098 569.145 289.113 569.145C286.543 569.145 284.456 569.983 282.852 571.66C281.266 573.337 280.473 575.516 280.473 578.195V594H274.047V563.758H279.078L279.926 569.09H280.254C281.257 567.285 282.56 565.854 284.164 564.797C285.786 563.74 287.527 563.211 289.387 563.211ZM330.457 559.055C326.702 559.055 323.749 560.385 321.598 563.047C319.447 565.708 318.371 569.382 318.371 574.066C318.371 578.97 319.401 582.68 321.461 585.195C323.539 587.711 326.538 588.969 330.457 588.969C332.152 588.969 333.793 588.805 335.379 588.477C336.965 588.13 338.615 587.693 340.328 587.164V592.77C337.193 593.954 333.638 594.547 329.664 594.547C323.812 594.547 319.319 592.779 316.184 589.242C313.048 585.688 311.48 580.611 311.48 574.012C311.48 569.855 312.237 566.219 313.75 563.102C315.281 559.984 317.487 557.596 320.367 555.938C323.247 554.279 326.629 553.449 330.512 553.449C334.595 553.449 338.368 554.306 341.832 556.02L339.48 561.461C338.132 560.823 336.701 560.267 335.188 559.793C333.693 559.301 332.116 559.055 330.457 559.055ZM354.684 594H348.258V551.453H354.684V594ZM370.324 594H363.898V563.758H370.324V594ZM363.516 555.746C363.516 554.598 363.826 553.714 364.445 553.094C365.083 552.474 365.986 552.164 367.152 552.164C368.283 552.164 369.158 552.474 369.777 553.094C370.415 553.714 370.734 554.598 370.734 555.746C370.734 556.84 370.415 557.706 369.777 558.344C369.158 558.964 368.283 559.273 367.152 559.273C365.986 559.273 365.083 558.964 364.445 558.344C363.826 557.706 363.516 556.84 363.516 555.746ZM392.746 594.547C388.043 594.547 384.361 593.18 381.699 590.445C379.056 587.693 377.734 583.91 377.734 579.098C377.734 574.158 378.965 570.275 381.426 567.449C383.887 564.624 387.268 563.211 391.57 563.211C395.562 563.211 398.716 564.423 401.031 566.848C403.346 569.272 404.504 572.608 404.504 576.855V580.328H384.352C384.443 583.263 385.236 585.523 386.73 587.109C388.225 588.677 390.331 589.461 393.047 589.461C394.833 589.461 396.492 589.297 398.023 588.969C399.573 588.622 401.232 588.057 403 587.273V592.496C401.432 593.243 399.846 593.772 398.242 594.082C396.638 594.392 394.806 594.547 392.746 594.547ZM391.57 568.078C389.529 568.078 387.888 568.725 386.648 570.02C385.427 571.314 384.698 573.201 384.461 575.68H398.188C398.151 573.182 397.549 571.296 396.383 570.02C395.216 568.725 393.612 568.078 391.57 568.078ZM438.41 594H431.957V575.406C431.957 573.073 431.483 571.332 430.535 570.184C429.605 569.035 428.12 568.461 426.078 568.461C423.362 568.461 421.375 569.263 420.117 570.867C418.859 572.471 418.23 575.16 418.23 578.934V594H411.805V563.758H416.836L417.738 567.723H418.066C418.978 566.283 420.272 565.171 421.949 564.387C423.626 563.603 425.486 563.211 427.527 563.211C434.783 563.211 438.41 566.902 438.41 574.285V594ZM458.617 589.352C460.185 589.352 461.753 589.105 463.32 588.613V593.453C462.609 593.763 461.689 594.018 460.559 594.219C459.447 594.438 458.289 594.547 457.086 594.547C450.997 594.547 447.953 591.339 447.953 584.922V568.625H443.824V565.781L448.254 563.43L450.441 557.031H454.406V563.758H463.02V568.625H454.406V584.812C454.406 586.362 454.789 587.51 455.555 588.258C456.339 588.987 457.359 589.352 458.617 589.352Z" fill="black"/>
<path d="M1289.95 594H1267.34V554.023H1289.95V559.547H1273.87V570.43H1288.94V575.898H1273.87V588.449H1289.95V594ZM1304.66 578.551L1294.52 563.758H1301.84L1308.73 574.34L1315.68 563.758H1322.95L1312.78 578.551L1323.47 594H1316.2L1308.73 582.68L1301.3 594H1294.02L1304.66 578.551ZM1340.04 589.352C1341.61 589.352 1343.18 589.105 1344.75 588.613V593.453C1344.04 593.763 1343.11 594.018 1341.98 594.219C1340.87 594.438 1339.71 594.547 1338.51 594.547C1332.42 594.547 1329.38 591.339 1329.38 584.922V568.625H1325.25V565.781L1329.68 563.43L1331.87 557.031H1335.83V563.758H1344.45V568.625H1335.83V584.812C1335.83 586.362 1336.21 587.51 1336.98 588.258C1337.76 588.987 1338.79 589.352 1340.04 589.352ZM1364.02 594.547C1359.32 594.547 1355.64 593.18 1352.98 590.445C1350.33 587.693 1349.01 583.91 1349.01 579.098C1349.01 574.158 1350.24 570.275 1352.7 567.449C1355.16 564.624 1358.55 563.211 1362.85 563.211C1366.84 563.211 1369.99 564.423 1372.31 566.848C1374.62 569.272 1375.78 572.608 1375.78 576.855V580.328H1355.63C1355.72 583.263 1356.51 585.523 1358.01 587.109C1359.5 588.677 1361.61 589.461 1364.32 589.461C1366.11 589.461 1367.77 589.297 1369.3 588.969C1370.85 588.622 1372.51 588.057 1374.28 587.273V592.496C1372.71 593.243 1371.12 593.772 1369.52 594.082C1367.92 594.392 1366.08 594.547 1364.02 594.547ZM1362.85 568.078C1360.81 568.078 1359.17 568.725 1357.93 570.02C1356.7 571.314 1355.98 573.201 1355.74 575.68H1369.46C1369.43 573.182 1368.83 571.296 1367.66 570.02C1366.49 568.725 1364.89 568.078 1362.85 568.078ZM1398.42 563.211C1399.72 563.211 1400.78 563.302 1401.62 563.484L1400.99 569.473C1400.08 569.254 1399.13 569.145 1398.15 569.145C1395.58 569.145 1393.49 569.983 1391.89 571.66C1390.3 573.337 1389.51 575.516 1389.51 578.195V594H1383.08V563.758H1388.11L1388.96 569.09H1389.29C1390.29 567.285 1391.6 565.854 1393.2 564.797C1394.82 563.74 1396.56 563.211 1398.42 563.211ZM1433.86 594H1427.41V575.406C1427.41 573.073 1426.93 571.332 1425.98 570.184C1425.05 569.035 1423.57 568.461 1421.53 568.461C1418.81 568.461 1416.82 569.263 1415.57 570.867C1414.31 572.471 1413.68 575.16 1413.68 578.934V594H1407.25V563.758H1412.29L1413.19 567.723H1413.52C1414.43 566.283 1415.72 565.171 1417.4 564.387C1419.08 563.603 1420.93 563.211 1422.98 563.211C1430.23 563.211 1433.86 566.902 1433.86 574.285V594ZM1461.72 594L1460.44 589.789H1460.22C1458.76 591.63 1457.29 592.888 1455.82 593.562C1454.34 594.219 1452.44 594.547 1450.13 594.547C1447.16 594.547 1444.83 593.745 1443.16 592.141C1441.5 590.536 1440.67 588.267 1440.67 585.332C1440.67 582.215 1441.83 579.863 1444.14 578.277C1446.46 576.691 1449.98 575.826 1454.72 575.68L1459.95 575.516V573.902C1459.95 571.97 1459.49 570.53 1458.58 569.582C1457.68 568.616 1456.29 568.133 1454.39 568.133C1452.85 568.133 1451.36 568.361 1449.94 568.816C1448.52 569.272 1447.15 569.81 1445.84 570.43L1443.76 565.836C1445.4 564.979 1447.19 564.332 1449.14 563.895C1451.1 563.439 1452.94 563.211 1454.67 563.211C1458.51 563.211 1461.41 564.049 1463.36 565.727C1465.33 567.404 1466.32 570.038 1466.32 573.629V594H1461.72ZM1452.15 589.625C1454.49 589.625 1456.35 588.978 1457.76 587.684C1459.18 586.371 1459.89 584.539 1459.89 582.188V579.562L1456.01 579.727C1452.98 579.836 1450.78 580.346 1449.39 581.258C1448.02 582.151 1447.34 583.527 1447.34 585.387C1447.34 586.736 1447.74 587.784 1448.54 588.531C1449.35 589.26 1450.55 589.625 1452.15 589.625ZM1481.71 594H1475.29V551.453H1481.71V594ZM1543.04 594H1535.93L1529.15 570.156C1528.86 569.117 1528.5 567.622 1528.06 565.672C1527.62 563.703 1527.36 562.336 1527.27 561.57C1527.08 562.737 1526.78 564.25 1526.36 566.109C1525.96 567.969 1525.62 569.354 1525.35 570.266L1518.73 594H1511.62L1506.46 573.984L1501.21 554.023H1507.88L1513.59 577.32C1514.49 581.057 1515.12 584.357 1515.51 587.219C1515.71 585.669 1516.01 583.938 1516.41 582.023C1516.81 580.109 1517.18 578.56 1517.5 577.375L1524.01 554.023H1530.49L1537.16 577.484C1537.8 579.654 1538.48 582.898 1539.19 587.219C1539.46 584.612 1540.12 581.294 1541.16 577.266L1546.84 554.023H1553.46L1543.04 594ZM1577.39 594L1576.1 589.789H1575.88C1574.42 591.63 1572.96 592.888 1571.48 593.562C1570 594.219 1568.11 594.547 1565.79 594.547C1562.82 594.547 1560.5 593.745 1558.82 592.141C1557.16 590.536 1556.33 588.267 1556.33 585.332C1556.33 582.215 1557.49 579.863 1559.8 578.277C1562.12 576.691 1565.65 575.826 1570.39 575.68L1575.61 575.516V573.902C1575.61 571.97 1575.15 570.53 1574.24 569.582C1573.35 568.616 1571.95 568.133 1570.06 568.133C1568.51 568.133 1567.02 568.361 1565.6 568.816C1564.18 569.272 1562.81 569.81 1561.5 570.43L1559.42 565.836C1561.06 564.979 1562.86 564.332 1564.81 563.895C1566.76 563.439 1568.6 563.211 1570.33 563.211C1574.18 563.211 1577.08 564.049 1579.03 565.727C1581 567.404 1581.98 570.038 1581.98 573.629V594H1577.39ZM1567.82 589.625C1570.15 589.625 1572.02 588.978 1573.42 587.684C1574.84 586.371 1575.55 584.539 1575.55 582.188V579.562L1571.67 579.727C1568.65 579.836 1566.44 580.346 1565.05 581.258C1563.69 582.151 1563 583.527 1563 585.387C1563 586.736 1563.4 587.784 1564.21 588.531C1565.01 589.26 1566.21 589.625 1567.82 589.625ZM1597.38 594H1590.95V551.453H1597.38V594ZM1613.02 594H1606.59V551.453H1613.02V594ZM1635.44 594.547C1630.73 594.547 1627.05 593.18 1624.39 590.445C1621.75 587.693 1620.43 583.91 1620.43 579.098C1620.43 574.158 1621.66 570.275 1624.12 567.449C1626.58 564.624 1629.96 563.211 1634.26 563.211C1638.25 563.211 1641.41 564.423 1643.72 566.848C1646.04 569.272 1647.2 572.608 1647.2 576.855V580.328H1627.04C1627.13 583.263 1627.93 585.523 1629.42 587.109C1630.92 588.677 1633.02 589.461 1635.74 589.461C1637.52 589.461 1639.18 589.297 1640.71 588.969C1642.26 588.622 1643.92 588.057 1645.69 587.273V592.496C1644.12 593.243 1642.54 593.772 1640.93 594.082C1639.33 594.392 1637.5 594.547 1635.44 594.547ZM1634.26 568.078C1632.22 568.078 1630.58 568.725 1629.34 570.02C1628.12 571.314 1627.39 573.201 1627.15 575.68H1640.88C1640.84 573.182 1640.24 571.296 1639.07 570.02C1637.91 568.725 1636.3 568.078 1634.26 568.078ZM1665.76 589.352C1667.33 589.352 1668.9 589.105 1670.46 588.613V593.453C1669.75 593.763 1668.83 594.018 1667.7 594.219C1666.59 594.438 1665.43 594.547 1664.23 594.547C1658.14 594.547 1655.1 591.339 1655.1 584.922V568.625H1650.97V565.781L1655.4 563.43L1657.59 557.031H1661.55V563.758H1670.16V568.625H1661.55V584.812C1661.55 586.362 1661.93 587.51 1662.7 588.258C1663.48 588.987 1664.5 589.352 1665.76 589.352Z" fill="black"/>
<defs>
<clipPath id="clip0">
<rect width="164" height="164" fill="white" transform="translate(1489)"/>
</clipPath>
<clipPath id="clip1">
<rect width="149" height="149" fill="white" transform="translate(1318 44)"/>
</clipPath>
</defs>
</svg>
