<svg width="1781" height="656" viewBox="0 0 1781 656" fill="none" xmlns="http://www.w3.org/2000/svg">
<path d="M456 580H24C19.7565 580 15.6869 578.314 12.6863 575.314C9.68571 572.313 8 568.243 8 564V516H472V564C472 568.243 470.314 572.313 467.314 575.314C464.313 578.314 460.243 580 456 580Z" fill="#E9E9EA"/>
<path d="M280 548H200L192 516H288L280 548Z" fill="#57565C"/>
<path d="M40 260H440C444.243 260 448.313 261.686 451.314 264.686C454.314 267.687 456 271.757 456 276V516H24V276C24 271.757 25.6857 267.687 28.6863 264.686C31.6869 261.686 35.7565 260 40 260V260Z" fill="#D8D7DA"/>
<path d="M56 292H424V516H56V292Z" fill="#2488FF"/>
<path d="M136 436H184V484H136V436Z" fill="#F6CC4F"/>
<path d="M216 388H264V484H216V388Z" fill="#F6CC4F"/>
<path d="M296 356H344V484H296V356Z" fill="#F6CC4F"/>
<path d="M200 364H176L152 396L128 364H8V228H200V364Z" fill="#A094F7"/>
<path d="M472 508H464V276C463.981 269.641 461.446 263.547 456.95 259.05C452.453 254.554 446.359 252.019 440 252H208V228C208 225.878 207.157 223.843 205.657 222.343C204.157 220.843 202.122 220 200 220H8C5.87827 220 3.84344 220.843 2.34315 222.343C0.842854 223.843 0 225.878 0 228V364C0 366.122 0.842854 368.157 2.34315 369.657C3.84344 371.157 5.87827 372 8 372H16V508H8C5.87827 508 3.84344 508.843 2.34315 510.343C0.842854 511.843 0 513.878 0 516V564C0.0189927 570.359 2.55366 576.453 7.05042 580.95C11.5472 585.446 17.6406 587.981 24 588H456C462.359 587.981 468.453 585.446 472.95 580.95C477.446 576.453 479.981 570.359 480 564V516C480 513.878 479.157 511.843 477.657 510.343C476.157 508.843 474.122 508 472 508ZM208 268H440C442.122 268 444.157 268.843 445.657 270.343C447.157 271.843 448 273.878 448 276V508H432V292C432 289.878 431.157 287.843 429.657 286.343C428.157 284.843 426.122 284 424 284H208V268ZM208 364V300H416V508H64V372H124L145.6 400.8C146.345 401.794 147.311 402.6 148.422 403.155C149.533 403.711 150.758 404 152 404C153.242 404 154.467 403.711 155.578 403.155C156.689 402.6 157.655 401.794 158.4 400.8L180 372H200C202.122 372 204.157 371.157 205.657 369.657C207.157 368.157 208 366.122 208 364ZM277.76 524L273.76 540H206.24L202.24 524H277.76ZM16 236H192V356H176C174.76 356.009 173.538 356.301 172.428 356.856C171.319 357.411 170.351 358.213 169.6 359.2L152 382.64L134.4 359.2C133.649 358.213 132.681 357.411 131.572 356.856C130.462 356.301 129.24 356.009 128 356H16V236ZM48 372V508H32V372H48ZM464 564C464 566.122 463.157 568.157 461.657 569.657C460.157 571.157 458.122 572 456 572H24C21.8783 572 19.8434 571.157 18.3431 569.657C16.8429 568.157 16 566.122 16 564V524H185.76L192.24 549.92C192.669 551.654 193.666 553.195 195.072 554.297C196.479 555.399 198.213 555.999 200 556H280C281.787 555.999 283.521 555.399 284.928 554.297C286.334 553.195 287.331 551.654 287.76 549.92L294.24 524H464V564Z" fill="black"/>
<path d="M352 476V356C352 353.878 351.157 351.843 349.657 350.343C348.157 348.843 346.122 348 344 348H296C293.878 348 291.843 348.843 290.343 350.343C288.843 351.843 288 353.878 288 356V476H272V388C272 385.878 271.157 383.843 269.657 382.343C268.157 380.843 266.122 380 264 380H216C213.878 380 211.843 380.843 210.343 382.343C208.843 383.843 208 385.878 208 388V476H192V436C192 433.878 191.157 431.843 189.657 430.343C188.157 428.843 186.122 428 184 428H136C133.878 428 131.843 428.843 130.343 430.343C128.843 431.843 128 433.878 128 436V476H112V492H368V476H352ZM176 476H144V444H176V476ZM256 476H224V396H256V476ZM336 476H304V364H336V476Z" fill="black"/>
<path d="M156 304.688L168 260L123.312 272L134.016 282.704L111.248 305.44L84.8 285.6C83.2594 284.445 81.3538 283.884 79.4332 284.021C77.5125 284.158 75.7055 284.982 74.344 286.344L34.344 326.344L45.656 337.656L80.752 302.56L107.2 322.4C108.741 323.555 110.646 324.116 112.567 323.979C114.488 323.842 116.294 323.018 117.656 321.656L145.328 293.984L156 304.688Z" fill="black"/>
<path d="M1532.99 407.996H1772.99V471.996H1532.99V407.996Z" fill="#E9E9EA"/>
<path d="M1532.99 495.996H1772.99V559.996H1532.99V495.996Z" fill="#E9E9EA"/>
<path d="M1544.99 471.996H1760.99V495.996H1544.99V471.996Z" fill="#ACABB1"/>
<path d="M1532.99 583.996H1772.99V647.996H1532.99V583.996Z" fill="#E9E9EA"/>
<path d="M1544.99 559.996H1760.99V583.996H1544.99V559.996Z" fill="#ACABB1"/>
<path d="M1668.99 327.996C1668.99 342.848 1663.09 357.091 1652.58 367.593C1642.08 378.096 1627.84 383.996 1612.99 383.996H1380.99C1361.89 383.996 1343.58 376.41 1330.07 362.907C1316.57 349.405 1308.99 331.091 1308.99 311.996C1308.99 292.9 1316.57 274.586 1330.07 261.084C1343.58 247.581 1361.89 239.996 1380.99 239.996C1382.27 239.996 1383.47 240.156 1384.67 240.156C1395.14 219.902 1411.99 203.657 1432.61 193.928C1453.24 184.199 1476.49 181.526 1498.78 186.321C1521.07 191.117 1541.17 203.114 1555.97 220.462C1570.77 237.81 1579.45 259.546 1580.67 282.316C1589.04 276.373 1598.89 272.849 1609.13 272.132C1619.38 271.414 1629.62 273.531 1638.74 278.248C1647.86 282.966 1655.51 290.103 1660.85 298.878C1666.18 307.653 1669 317.726 1668.99 327.996Z" fill="#2488FF"/>
<path d="M1476.99 351.996C1485.82 351.996 1492.99 344.832 1492.99 335.996C1492.99 327.159 1485.82 319.996 1476.99 319.996C1468.15 319.996 1460.99 327.159 1460.99 335.996C1460.99 344.832 1468.15 351.996 1476.99 351.996Z" fill="#F6CC4F"/>
<path d="M1428.99 327.996C1437.82 327.996 1444.99 320.832 1444.99 311.996C1444.99 303.159 1437.82 295.996 1428.99 295.996C1420.15 295.996 1412.99 303.159 1412.99 311.996C1412.99 320.832 1420.15 327.996 1428.99 327.996Z" fill="#F6CC4F"/>
<path d="M1380.99 303.996C1389.82 303.996 1396.99 296.832 1396.99 287.996C1396.99 279.159 1389.82 271.996 1380.99 271.996C1372.15 271.996 1364.99 279.159 1364.99 287.996C1364.99 296.832 1372.15 303.996 1380.99 303.996Z" fill="#F6CC4F"/>
<path d="M1772.99 479.996C1775.11 479.996 1777.14 479.153 1778.64 477.652C1780.14 476.152 1780.99 474.117 1780.99 471.996V407.996C1780.99 405.874 1780.14 403.839 1778.64 402.339C1777.14 400.838 1775.11 399.996 1772.99 399.996H1532.99C1530.86 399.996 1528.83 400.838 1527.33 402.339C1525.83 403.839 1524.99 405.874 1524.99 407.996V431.996H1484.99V391.996H1612.99C1629.96 391.996 1646.24 385.253 1658.24 373.25C1670.24 361.248 1676.99 344.969 1676.99 327.996C1676.99 311.022 1670.24 294.743 1658.24 282.741C1646.24 270.738 1629.96 263.996 1612.99 263.996C1604.15 263.984 1595.4 265.82 1587.31 269.388C1583.51 246.658 1572.77 225.66 1556.57 209.262C1540.38 192.865 1519.52 181.869 1496.84 177.777C1474.16 173.686 1450.77 176.698 1429.86 186.403C1408.96 196.107 1391.56 212.03 1380.05 231.996C1359.61 232.238 1340.04 240.295 1325.35 254.513C1310.67 268.731 1301.98 288.032 1301.08 308.452C1300.17 328.873 1307.12 348.865 1320.49 364.325C1333.87 379.785 1352.65 389.54 1372.99 391.588V615.996C1372.99 618.117 1373.83 620.152 1375.33 621.652C1376.83 623.153 1378.86 623.996 1380.99 623.996H1524.99V647.996C1524.99 650.117 1525.83 652.152 1527.33 653.652C1528.83 655.153 1530.86 655.996 1532.99 655.996H1772.99C1775.11 655.996 1777.14 655.153 1778.64 653.652C1780.14 652.152 1780.99 650.117 1780.99 647.996V583.996C1780.99 581.874 1780.14 579.839 1778.64 578.339C1777.14 576.838 1775.11 575.996 1772.99 575.996H1764.99V567.996H1772.99C1775.11 567.996 1777.14 567.153 1778.64 565.652C1780.14 564.152 1780.99 562.117 1780.99 559.996V495.996C1780.99 493.874 1780.14 491.839 1778.64 490.339C1777.14 488.838 1775.11 487.996 1772.99 487.996H1764.99V479.996H1772.99ZM1540.99 415.996H1764.99V463.996H1540.99V415.996ZM1476.99 447.996H1524.99V471.996C1524.99 474.117 1525.83 476.152 1527.33 477.652C1528.83 479.153 1530.86 479.996 1532.99 479.996H1540.99V487.996H1532.99C1530.86 487.996 1528.83 488.838 1527.33 490.339C1525.83 491.839 1524.99 493.874 1524.99 495.996V519.996H1436.99V391.996H1468.99V439.996C1468.99 442.117 1469.83 444.152 1471.33 445.652C1472.83 447.153 1474.86 447.996 1476.99 447.996ZM1316.99 311.996C1317.01 295.028 1323.75 278.76 1335.75 266.762C1347.75 254.764 1364.02 248.015 1380.99 247.996C1381.64 247.996 1382.27 248.044 1382.91 248.092L1384.28 248.172C1385.82 248.269 1387.35 247.913 1388.68 247.148C1390.02 246.383 1391.1 245.242 1391.79 243.868C1401.45 225.167 1417 210.166 1436.03 201.178C1455.06 192.19 1476.53 189.715 1497.1 194.134C1517.68 198.554 1536.24 209.623 1549.9 225.634C1563.56 241.644 1571.58 261.706 1572.71 282.724C1572.78 284.153 1573.24 285.536 1574.03 286.729C1574.82 287.921 1575.92 288.879 1577.21 289.503C1578.5 290.126 1579.93 290.393 1581.36 290.274C1582.79 290.155 1584.15 289.656 1585.32 288.828C1591.49 284.461 1598.59 281.611 1606.07 280.509C1613.54 279.407 1621.17 280.085 1628.33 282.487C1635.49 284.888 1641.99 288.947 1647.28 294.332C1652.58 299.716 1656.54 306.276 1658.82 313.476C1661.11 320.676 1661.66 328.314 1660.44 335.768C1659.21 343.223 1656.25 350.283 1651.78 356.375C1647.31 362.468 1641.47 367.42 1634.73 370.829C1627.99 374.238 1620.54 376.008 1612.99 375.996H1484.99V358.524C1490.32 356.636 1494.82 352.923 1497.69 348.04C1500.55 343.156 1501.6 337.418 1500.64 331.838C1499.68 326.258 1496.78 321.196 1492.46 317.547C1488.13 313.898 1482.65 311.896 1476.99 311.896C1471.33 311.896 1465.85 313.898 1461.52 317.547C1457.19 321.196 1454.29 326.258 1453.33 331.838C1452.37 337.418 1453.42 343.156 1456.29 348.04C1459.15 352.923 1463.65 356.636 1468.99 358.524V375.996H1436.99V334.524C1442.32 332.636 1446.82 328.923 1449.69 324.04C1452.55 319.156 1453.6 313.418 1452.64 307.838C1451.68 302.258 1448.78 297.196 1444.46 293.547C1440.13 289.898 1434.65 287.896 1428.99 287.896C1423.33 287.896 1417.85 289.898 1413.52 293.547C1409.19 297.196 1406.29 302.258 1405.33 307.838C1404.37 313.418 1405.42 319.156 1408.29 324.04C1411.15 328.923 1415.65 332.636 1420.99 334.524V375.996H1388.99V310.524C1394.32 308.636 1398.82 304.923 1401.69 300.04C1404.55 295.156 1405.6 289.418 1404.64 283.838C1403.68 278.258 1400.78 273.196 1396.46 269.547C1392.13 265.898 1386.65 263.896 1380.99 263.896C1375.33 263.896 1369.85 265.898 1365.52 269.547C1361.19 273.196 1358.29 278.258 1357.33 283.838C1356.37 289.418 1357.42 295.156 1360.29 300.04C1363.15 304.923 1367.65 308.636 1372.99 310.524V375.444C1357.53 373.483 1343.33 365.96 1333.02 354.282C1322.71 342.604 1317.01 327.571 1316.99 311.996V311.996ZM1468.99 335.996C1468.99 334.413 1469.46 332.867 1470.33 331.551C1471.21 330.235 1472.46 329.21 1473.93 328.604C1475.39 327.999 1477 327.841 1478.55 328.149C1480.1 328.458 1481.52 329.22 1482.64 330.339C1483.76 331.457 1484.52 332.883 1484.83 334.435C1485.14 335.987 1484.98 337.595 1484.38 339.057C1483.77 340.519 1482.75 341.768 1481.43 342.647C1480.12 343.526 1478.57 343.996 1476.99 343.996C1474.86 343.996 1472.83 343.153 1471.33 341.652C1469.83 340.152 1468.99 338.117 1468.99 335.996ZM1420.99 311.996C1420.99 310.413 1421.46 308.867 1422.33 307.551C1423.21 306.235 1424.46 305.21 1425.93 304.604C1427.39 303.999 1429 303.841 1430.55 304.149C1432.1 304.458 1433.52 305.22 1434.64 306.339C1435.76 307.457 1436.52 308.883 1436.83 310.435C1437.14 311.987 1436.98 313.595 1436.38 315.057C1435.77 316.519 1434.75 317.768 1433.43 318.647C1432.12 319.526 1430.57 319.996 1428.99 319.996C1426.86 319.996 1424.83 319.153 1423.33 317.652C1421.83 316.152 1420.99 314.117 1420.99 311.996ZM1372.99 287.996C1372.99 286.413 1373.46 284.867 1374.33 283.551C1375.21 282.235 1376.46 281.21 1377.93 280.604C1379.39 279.999 1381 279.841 1382.55 280.149C1384.1 280.458 1385.52 281.22 1386.64 282.339C1387.76 283.457 1388.52 284.883 1388.83 286.435C1389.14 287.987 1388.98 289.595 1388.38 291.057C1387.77 292.519 1386.75 293.768 1385.43 294.647C1384.12 295.526 1382.57 295.996 1380.99 295.996C1378.86 295.996 1376.83 295.153 1375.33 293.652C1373.83 292.152 1372.99 290.117 1372.99 287.996ZM1524.99 583.996V607.996H1388.99V391.996H1420.99V527.996C1420.99 530.117 1421.83 532.152 1423.33 533.652C1424.83 535.153 1426.86 535.996 1428.99 535.996H1524.99V559.996C1524.99 562.117 1525.83 564.152 1527.33 565.652C1528.83 567.153 1530.86 567.996 1532.99 567.996H1540.99V575.996H1532.99C1530.86 575.996 1528.83 576.838 1527.33 578.339C1525.83 579.839 1524.99 581.874 1524.99 583.996ZM1764.99 639.996H1540.99V591.996H1764.99V639.996ZM1748.99 575.996H1556.99V567.996H1748.99V575.996ZM1764.99 551.996H1540.99V503.996H1764.99V551.996ZM1748.99 487.996H1556.99V479.996H1748.99V487.996Z" fill="black"/>
<path d="M1564.99 431.996H1580.99V447.996H1564.99V431.996Z" fill="black"/>
<path d="M1596.99 431.996H1612.99V447.996H1596.99V431.996Z" fill="black"/>
<path d="M1628.99 431.996H1644.99V447.996H1628.99V431.996Z" fill="black"/>
<path d="M1564.99 519.996H1580.99V535.996H1564.99V519.996Z" fill="black"/>
<path d="M1596.99 519.996H1612.99V535.996H1596.99V519.996Z" fill="black"/>
<path d="M1628.99 519.996H1644.99V535.996H1628.99V519.996Z" fill="black"/>
<path d="M1564.99 607.996H1580.99V623.996H1564.99V607.996Z" fill="black"/>
<path d="M1596.99 607.996H1612.99V623.996H1596.99V607.996Z" fill="black"/>
<path d="M1628.99 607.996H1644.99V623.996H1628.99V607.996Z" fill="black"/>
<path d="M518 437L558 460.094V413.906L518 437ZM1236 437L1196 413.906V460.094L1236 437ZM554 441H1200V433H554V441Z" fill="black"/>
<path d="M1351.16 38.6172H1355.7C1358.75 38.6172 1360.95 38.0521 1362.32 36.9219C1363.69 35.7917 1364.37 34.1146 1364.37 31.8906C1364.37 29.6302 1363.63 28.0078 1362.16 27.0234C1360.68 26.0391 1358.46 25.5469 1355.48 25.5469H1351.16V38.6172ZM1351.16 44.0312V60H1344.63V20.0234H1355.92C1361.08 20.0234 1364.9 20.9896 1367.38 22.9219C1369.86 24.8542 1371.1 27.7708 1371.1 31.6719C1371.1 36.6484 1368.51 40.194 1363.33 42.3086L1374.62 60H1367.19L1357.62 44.0312H1351.16ZM1392.97 60.5469C1388.27 60.5469 1384.59 59.1797 1381.93 56.4453C1379.28 53.6927 1377.96 49.9102 1377.96 45.0977C1377.96 40.1576 1379.19 36.2747 1381.65 33.4492C1384.11 30.6237 1387.49 29.2109 1391.8 29.2109C1395.79 29.2109 1398.94 30.4232 1401.26 32.8477C1403.57 35.2721 1404.73 38.6081 1404.73 42.8555V46.3281H1384.58C1384.67 49.263 1385.46 51.5234 1386.96 53.1094C1388.45 54.6771 1390.56 55.4609 1393.27 55.4609C1395.06 55.4609 1396.72 55.2969 1398.25 54.9688C1399.8 54.6224 1401.46 54.0573 1403.23 53.2734V58.4961C1401.66 59.2435 1400.07 59.7721 1398.47 60.082C1396.86 60.3919 1395.03 60.5469 1392.97 60.5469ZM1391.8 34.0781C1389.76 34.0781 1388.11 34.7253 1386.88 36.0195C1385.65 37.3138 1384.92 39.2005 1384.69 41.6797H1398.41C1398.38 39.1823 1397.78 37.2956 1396.61 36.0195C1395.44 34.7253 1393.84 34.0781 1391.8 34.0781ZM1437.52 60H1431.06V41.3516C1431.06 39.0365 1430.62 37.3138 1429.75 36.1836C1428.88 35.0352 1427.51 34.4609 1425.65 34.4609C1423.17 34.4609 1421.35 35.2721 1420.18 36.8945C1419.03 38.4987 1418.46 41.1784 1418.46 44.9336V60H1412.03V29.7578H1417.06L1417.96 33.7227H1418.29C1419.13 32.2826 1420.34 31.1706 1421.93 30.3867C1423.53 29.6029 1425.29 29.2109 1427.21 29.2109C1431.86 29.2109 1434.94 30.7969 1436.45 33.9688H1436.89C1437.78 32.474 1439.04 31.3073 1440.66 30.4688C1442.28 29.6302 1444.14 29.2109 1446.24 29.2109C1449.85 29.2109 1452.47 30.1224 1454.11 31.9453C1455.77 33.7682 1456.6 36.5482 1456.6 40.2852V60H1450.18V41.3516C1450.18 39.0365 1449.73 37.3138 1448.84 36.1836C1447.96 35.0352 1446.59 34.4609 1444.73 34.4609C1442.24 34.4609 1440.4 35.2448 1439.24 36.8125C1438.09 38.362 1437.52 40.75 1437.52 43.9766V60ZM1492.39 44.8242C1492.39 49.7643 1491.13 53.6198 1488.59 56.3906C1486.06 59.1615 1482.53 60.5469 1478.01 60.5469C1475.19 60.5469 1472.69 59.9089 1470.52 58.6328C1468.35 57.3568 1466.68 55.5247 1465.52 53.1367C1464.35 50.7487 1463.77 47.9779 1463.77 44.8242C1463.77 39.9206 1465.02 36.0924 1467.54 33.3398C1470.05 30.5872 1473.6 29.2109 1478.18 29.2109C1482.55 29.2109 1486.01 30.6237 1488.57 33.4492C1491.12 36.2565 1492.39 40.0482 1492.39 44.8242ZM1470.38 44.8242C1470.38 51.806 1472.96 55.2969 1478.12 55.2969C1483.23 55.2969 1485.78 51.806 1485.78 44.8242C1485.78 37.9154 1483.21 34.4609 1478.07 34.4609C1475.37 34.4609 1473.41 35.3542 1472.19 37.1406C1470.98 38.9271 1470.38 41.4883 1470.38 44.8242ZM1511.07 55.3516C1512.64 55.3516 1514.21 55.1055 1515.77 54.6133V59.4531C1515.06 59.763 1514.14 60.0182 1513.01 60.2188C1511.9 60.4375 1510.74 60.5469 1509.54 60.5469C1503.45 60.5469 1500.41 57.3385 1500.41 50.9219V34.625H1496.28V31.7812L1500.71 29.4297L1502.89 23.0312H1506.86V29.7578H1515.47V34.625H1506.86V50.8125C1506.86 52.362 1507.24 53.5104 1508.01 54.2578C1508.79 54.987 1509.81 55.3516 1511.07 55.3516ZM1535.05 60.5469C1530.35 60.5469 1526.67 59.1797 1524 56.4453C1521.36 53.6927 1520.04 49.9102 1520.04 45.0977C1520.04 40.1576 1521.27 36.2747 1523.73 33.4492C1526.19 30.6237 1529.57 29.2109 1533.88 29.2109C1537.87 29.2109 1541.02 30.4232 1543.34 32.8477C1545.65 35.2721 1546.81 38.6081 1546.81 42.8555V46.3281H1526.66C1526.75 49.263 1527.54 51.5234 1529.04 53.1094C1530.53 54.6771 1532.64 55.4609 1535.35 55.4609C1537.14 55.4609 1538.8 55.2969 1540.33 54.9688C1541.88 54.6224 1543.54 54.0573 1545.3 53.2734V58.4961C1543.74 59.2435 1542.15 59.7721 1540.55 60.082C1538.94 60.3919 1537.11 60.5469 1535.05 60.5469ZM1533.88 34.0781C1531.83 34.0781 1530.19 34.7253 1528.95 36.0195C1527.73 37.3138 1527 39.2005 1526.77 41.6797H1540.49C1540.46 39.1823 1539.85 37.2956 1538.69 36.0195C1537.52 34.7253 1535.92 34.0781 1533.88 34.0781ZM1592.39 49.1445C1592.39 52.6992 1591.11 55.4883 1588.54 57.5117C1585.96 59.5352 1582.42 60.5469 1577.9 60.5469C1573.38 60.5469 1569.68 59.8451 1566.8 58.4414V52.2617C1568.62 53.1185 1570.55 53.793 1572.59 54.2852C1574.65 54.7773 1576.57 55.0234 1578.34 55.0234C1580.92 55.0234 1582.83 54.5312 1584.05 53.5469C1585.29 52.5625 1585.91 51.2409 1585.91 49.582C1585.91 48.0872 1585.35 46.8203 1584.21 45.7812C1583.08 44.7422 1580.75 43.5117 1577.21 42.0898C1573.57 40.6133 1571 38.9271 1569.5 37.0312C1568.01 35.1354 1567.26 32.8568 1567.26 30.1953C1567.26 26.8594 1568.45 24.2344 1570.82 22.3203C1573.19 20.4062 1576.37 19.4492 1580.36 19.4492C1584.19 19.4492 1588 20.2878 1591.79 21.9648L1589.71 27.2969C1586.16 25.8021 1582.98 25.0547 1580.2 25.0547C1578.08 25.0547 1576.48 25.5195 1575.38 26.4492C1574.29 27.3607 1573.74 28.5729 1573.74 30.0859C1573.74 31.125 1573.96 32.0182 1574.4 32.7656C1574.84 33.4948 1575.56 34.1875 1576.56 34.8438C1577.56 35.5 1579.37 36.3659 1581.97 37.4414C1584.91 38.6628 1587.06 39.8021 1588.43 40.8594C1589.79 41.9167 1590.8 43.1107 1591.43 44.4414C1592.07 45.7721 1592.39 47.3398 1592.39 49.1445ZM1605.87 60H1599.45V29.7578H1605.87V60ZM1599.06 21.7461C1599.06 20.5977 1599.37 19.7135 1599.99 19.0938C1600.63 18.474 1601.53 18.1641 1602.7 18.1641C1603.83 18.1641 1604.7 18.474 1605.32 19.0938C1605.96 19.7135 1606.28 20.5977 1606.28 21.7461C1606.28 22.8398 1605.96 23.7057 1605.32 24.3438C1604.7 24.9635 1603.83 25.2734 1602.7 25.2734C1601.53 25.2734 1600.63 24.9635 1599.99 24.3438C1599.37 23.7057 1599.06 22.8398 1599.06 21.7461ZM1640.62 29.7578V33.2852L1635.46 34.2422C1635.93 34.8802 1636.32 35.6641 1636.63 36.5938C1636.94 37.5234 1637.1 38.5078 1637.1 39.5469C1637.1 42.6641 1636.02 45.1159 1633.87 46.9023C1631.72 48.6888 1628.76 49.582 1624.98 49.582C1624.02 49.582 1623.14 49.5091 1622.36 49.3633C1620.97 50.2201 1620.28 51.2227 1620.28 52.3711C1620.28 53.0638 1620.6 53.5833 1621.24 53.9297C1621.89 54.276 1623.09 54.4492 1624.82 54.4492H1630.1C1633.43 54.4492 1635.97 55.1602 1637.7 56.582C1639.43 58.0039 1640.3 60.0547 1640.3 62.7344C1640.3 66.1615 1638.88 68.8047 1636.06 70.6641C1633.23 72.5234 1629.15 73.4531 1623.81 73.4531C1619.69 73.4531 1616.54 72.724 1614.38 71.2656C1612.21 69.8073 1611.12 67.7292 1611.12 65.0312C1611.12 63.1719 1611.7 61.6042 1612.87 60.3281C1614.06 59.0703 1615.71 58.1953 1617.82 57.7031C1616.96 57.3385 1616.25 56.7552 1615.69 55.9531C1615.14 55.1328 1614.87 54.276 1614.87 53.3828C1614.87 52.2526 1615.19 51.2956 1615.82 50.5117C1616.46 49.7279 1617.41 48.9531 1618.67 48.1875C1617.1 47.513 1615.82 46.4193 1614.84 44.9062C1613.87 43.375 1613.39 41.5885 1613.39 39.5469C1613.39 36.2656 1614.42 33.7227 1616.48 31.918C1618.56 30.1133 1621.51 29.2109 1625.34 29.2109C1626.2 29.2109 1627.09 29.2747 1628.02 29.4023C1628.97 29.5117 1629.68 29.6302 1630.15 29.7578H1640.62ZM1616.86 64.7031C1616.86 66.0885 1617.48 67.1549 1618.72 67.9023C1619.98 68.6497 1621.74 69.0234 1624 69.0234C1627.5 69.0234 1630.11 68.5221 1631.82 67.5195C1633.53 66.5169 1634.39 65.1862 1634.39 63.5273C1634.39 62.2148 1633.92 61.276 1632.97 60.7109C1632.04 60.1641 1630.3 59.8906 1627.75 59.8906H1622.88C1621.04 59.8906 1619.57 60.319 1618.48 61.1758C1617.4 62.0508 1616.86 63.2266 1616.86 64.7031ZM1619.62 39.5469C1619.62 41.4427 1620.11 42.901 1621.07 43.9219C1622.06 44.9427 1623.46 45.4531 1625.29 45.4531C1629 45.4531 1630.86 43.4661 1630.86 39.4922C1630.86 37.5234 1630.4 36.0104 1629.47 34.9531C1628.56 33.8776 1627.16 33.3398 1625.29 33.3398C1623.43 33.3398 1622.01 33.8685 1621.05 34.9258C1620.1 35.9831 1619.62 37.5234 1619.62 39.5469ZM1672.86 60H1666.41V41.4062C1666.41 39.0729 1665.94 37.332 1664.99 36.1836C1664.06 35.0352 1662.57 34.4609 1660.53 34.4609C1657.82 34.4609 1655.83 35.263 1654.57 36.8672C1653.31 38.4714 1652.68 41.1602 1652.68 44.9336V60H1646.26V29.7578H1651.29L1652.19 33.7227H1652.52C1653.43 32.2826 1654.73 31.1706 1656.4 30.3867C1658.08 29.6029 1659.94 29.2109 1661.98 29.2109C1669.24 29.2109 1672.86 32.9023 1672.86 40.2852V60ZM1695.01 60.5469C1690.31 60.5469 1686.63 59.1797 1683.96 56.4453C1681.32 53.6927 1680 49.9102 1680 45.0977C1680 40.1576 1681.23 36.2747 1683.69 33.4492C1686.15 30.6237 1689.53 29.2109 1693.84 29.2109C1697.83 29.2109 1700.98 30.4232 1703.3 32.8477C1705.61 35.2721 1706.77 38.6081 1706.77 42.8555V46.3281H1686.62C1686.71 49.263 1687.5 51.5234 1689 53.1094C1690.49 54.6771 1692.6 55.4609 1695.31 55.4609C1697.1 55.4609 1698.76 55.2969 1700.29 54.9688C1701.84 54.6224 1703.5 54.0573 1705.27 53.2734V58.4961C1703.7 59.2435 1702.11 59.7721 1700.51 60.082C1698.9 60.3919 1697.07 60.5469 1695.01 60.5469ZM1693.84 34.0781C1691.79 34.0781 1690.15 34.7253 1688.91 36.0195C1687.69 37.3138 1686.96 39.2005 1686.73 41.6797H1700.45C1700.42 39.1823 1699.82 37.2956 1698.65 36.0195C1697.48 34.7253 1695.88 34.0781 1693.84 34.0781ZM1729.41 29.2109C1730.7 29.2109 1731.77 29.3021 1732.61 29.4844L1731.98 35.4727C1731.07 35.2539 1730.12 35.1445 1729.14 35.1445C1726.57 35.1445 1724.48 35.9831 1722.88 37.6602C1721.29 39.3372 1720.5 41.5156 1720.5 44.1953V60H1714.07V29.7578H1719.1L1719.95 35.0898H1720.28C1721.28 33.2852 1722.58 31.8542 1724.19 30.7969C1725.81 29.7396 1727.55 29.2109 1729.41 29.2109ZM1478.01 125.145C1478.01 128.699 1476.73 131.488 1474.16 133.512C1471.59 135.535 1468.04 136.547 1463.52 136.547C1459 136.547 1455.3 135.845 1452.42 134.441V128.262C1454.24 129.118 1456.17 129.793 1458.21 130.285C1460.27 130.777 1462.19 131.023 1463.96 131.023C1466.55 131.023 1468.45 130.531 1469.67 129.547C1470.91 128.562 1471.53 127.241 1471.53 125.582C1471.53 124.087 1470.97 122.82 1469.84 121.781C1468.71 120.742 1466.37 119.512 1462.84 118.09C1459.19 116.613 1456.62 114.927 1455.12 113.031C1453.63 111.135 1452.88 108.857 1452.88 106.195C1452.88 102.859 1454.07 100.234 1456.44 98.3203C1458.81 96.4062 1461.99 95.4492 1465.98 95.4492C1469.81 95.4492 1473.62 96.2878 1477.41 97.9648L1475.33 103.297C1471.78 101.802 1468.61 101.055 1465.82 101.055C1463.7 101.055 1462.1 101.52 1461 102.449C1459.91 103.361 1459.36 104.573 1459.36 106.086C1459.36 107.125 1459.58 108.018 1460.02 108.766C1460.46 109.495 1461.18 110.188 1462.18 110.844C1463.18 111.5 1464.99 112.366 1467.59 113.441C1470.53 114.663 1472.68 115.802 1474.05 116.859C1475.41 117.917 1476.42 119.111 1477.05 120.441C1477.69 121.772 1478.01 123.34 1478.01 125.145ZM1498.27 136.547C1493.57 136.547 1489.89 135.18 1487.23 132.445C1484.58 129.693 1483.26 125.91 1483.26 121.098C1483.26 116.158 1484.49 112.275 1486.95 109.449C1489.41 106.624 1492.8 105.211 1497.1 105.211C1501.09 105.211 1504.24 106.423 1506.56 108.848C1508.87 111.272 1510.03 114.608 1510.03 118.855V122.328H1489.88C1489.97 125.263 1490.76 127.523 1492.26 129.109C1493.75 130.677 1495.86 131.461 1498.57 131.461C1500.36 131.461 1502.02 131.297 1503.55 130.969C1505.1 130.622 1506.76 130.057 1508.53 129.273V134.496C1506.96 135.243 1505.37 135.772 1503.77 136.082C1502.17 136.392 1500.33 136.547 1498.27 136.547ZM1497.1 110.078C1495.06 110.078 1493.42 110.725 1492.18 112.02C1490.95 113.314 1490.23 115.201 1489.99 117.68H1503.71C1503.68 115.182 1503.08 113.296 1501.91 112.02C1500.74 110.725 1499.14 110.078 1497.1 110.078ZM1532.67 105.211C1533.97 105.211 1535.03 105.302 1535.87 105.484L1535.24 111.473C1534.33 111.254 1533.38 111.145 1532.4 111.145C1529.83 111.145 1527.74 111.983 1526.14 113.66C1524.55 115.337 1523.76 117.516 1523.76 120.195V136H1517.33V105.758H1522.36L1523.21 111.09H1523.54C1524.54 109.285 1525.85 107.854 1527.45 106.797C1529.07 105.74 1530.81 105.211 1532.67 105.211ZM1548.39 136L1536.91 105.758H1543.69L1549.84 123.34C1550.9 126.293 1551.54 128.681 1551.76 130.504H1551.98C1552.14 129.191 1552.78 126.803 1553.89 123.34L1560.04 105.758H1566.88L1555.34 136H1548.39ZM1584.68 136.547C1579.98 136.547 1576.29 135.18 1573.63 132.445C1570.99 129.693 1569.67 125.91 1569.67 121.098C1569.67 116.158 1570.9 112.275 1573.36 109.449C1575.82 106.624 1579.2 105.211 1583.5 105.211C1587.5 105.211 1590.65 106.423 1592.96 108.848C1595.28 111.272 1596.44 114.608 1596.44 118.855V122.328H1576.29C1576.38 125.263 1577.17 127.523 1578.66 129.109C1580.16 130.677 1582.26 131.461 1584.98 131.461C1586.77 131.461 1588.43 131.297 1589.96 130.969C1591.51 130.622 1593.17 130.057 1594.93 129.273V134.496C1593.37 135.243 1591.78 135.772 1590.18 136.082C1588.57 136.392 1586.74 136.547 1584.68 136.547ZM1583.5 110.078C1581.46 110.078 1579.82 110.725 1578.58 112.02C1577.36 113.314 1576.63 115.201 1576.39 117.68H1590.12C1590.08 115.182 1589.48 113.296 1588.32 112.02C1587.15 110.725 1585.55 110.078 1583.5 110.078ZM1619.08 105.211C1620.37 105.211 1621.44 105.302 1622.28 105.484L1621.65 111.473C1620.74 111.254 1619.79 111.145 1618.8 111.145C1616.23 111.145 1614.15 111.983 1612.54 113.66C1610.96 115.337 1610.16 117.516 1610.16 120.195V136H1603.74V105.758H1608.77L1609.62 111.09H1609.95C1610.95 109.285 1612.25 107.854 1613.86 106.797C1615.48 105.74 1617.22 105.211 1619.08 105.211Z" fill="black"/>
<path d="M766.328 518.145C766.328 521.699 765.043 524.488 762.473 526.512C759.902 528.535 756.357 529.547 751.836 529.547C747.315 529.547 743.615 528.845 740.734 527.441V521.262C742.557 522.118 744.49 522.793 746.531 523.285C748.591 523.777 750.505 524.023 752.273 524.023C754.862 524.023 756.767 523.531 757.988 522.547C759.228 521.562 759.848 520.241 759.848 518.582C759.848 517.087 759.283 515.82 758.152 514.781C757.022 513.742 754.689 512.512 751.152 511.09C747.507 509.613 744.936 507.927 743.441 506.031C741.947 504.135 741.199 501.857 741.199 499.195C741.199 495.859 742.384 493.234 744.754 491.32C747.124 489.406 750.305 488.449 754.297 488.449C758.125 488.449 761.935 489.288 765.727 490.965L763.648 496.297C760.094 494.802 756.922 494.055 754.133 494.055C752.018 494.055 750.414 494.52 749.32 495.449C748.227 496.361 747.68 497.573 747.68 499.086C747.68 500.125 747.898 501.018 748.336 501.766C748.773 502.495 749.493 503.188 750.496 503.844C751.499 504.5 753.303 505.366 755.91 506.441C758.845 507.663 760.996 508.802 762.363 509.859C763.73 510.917 764.733 512.111 765.371 513.441C766.009 514.772 766.328 516.34 766.328 518.145ZM779.809 529H773.383V498.758H779.809V529ZM773 490.746C773 489.598 773.31 488.714 773.93 488.094C774.568 487.474 775.47 487.164 776.637 487.164C777.767 487.164 778.642 487.474 779.262 488.094C779.9 488.714 780.219 489.598 780.219 490.746C780.219 491.84 779.9 492.706 779.262 493.344C778.642 493.964 777.767 494.273 776.637 494.273C775.47 494.273 774.568 493.964 773.93 493.344C773.31 492.706 773 491.84 773 490.746ZM814.562 498.758V502.285L809.395 503.242C809.868 503.88 810.26 504.664 810.57 505.594C810.88 506.523 811.035 507.508 811.035 508.547C811.035 511.664 809.96 514.116 807.809 515.902C805.658 517.689 802.695 518.582 798.922 518.582C797.956 518.582 797.081 518.509 796.297 518.363C794.911 519.22 794.219 520.223 794.219 521.371C794.219 522.064 794.538 522.583 795.176 522.93C795.832 523.276 797.026 523.449 798.758 523.449H804.035C807.371 523.449 809.905 524.16 811.637 525.582C813.368 527.004 814.234 529.055 814.234 531.734C814.234 535.161 812.822 537.805 809.996 539.664C807.171 541.523 803.087 542.453 797.746 542.453C793.626 542.453 790.482 541.724 788.312 540.266C786.143 538.807 785.059 536.729 785.059 534.031C785.059 532.172 785.642 530.604 786.809 529.328C787.993 528.07 789.643 527.195 791.758 526.703C790.901 526.339 790.19 525.755 789.625 524.953C789.078 524.133 788.805 523.276 788.805 522.383C788.805 521.253 789.124 520.296 789.762 519.512C790.4 518.728 791.348 517.953 792.605 517.188C791.038 516.513 789.762 515.419 788.777 513.906C787.811 512.375 787.328 510.589 787.328 508.547C787.328 505.266 788.358 502.723 790.418 500.918C792.496 499.113 795.449 498.211 799.277 498.211C800.134 498.211 801.027 498.275 801.957 498.402C802.905 498.512 803.616 498.63 804.09 498.758H814.562ZM790.801 533.703C790.801 535.089 791.421 536.155 792.66 536.902C793.918 537.65 795.677 538.023 797.938 538.023C801.438 538.023 804.044 537.522 805.758 536.52C807.471 535.517 808.328 534.186 808.328 532.527C808.328 531.215 807.854 530.276 806.906 529.711C805.977 529.164 804.236 528.891 801.684 528.891H796.816C794.975 528.891 793.508 529.319 792.414 530.176C791.339 531.051 790.801 532.227 790.801 533.703ZM793.562 508.547C793.562 510.443 794.046 511.901 795.012 512.922C795.996 513.943 797.4 514.453 799.223 514.453C802.941 514.453 804.801 512.466 804.801 508.492C804.801 506.523 804.336 505.01 803.406 503.953C802.495 502.878 801.1 502.34 799.223 502.34C797.363 502.34 795.951 502.868 794.984 503.926C794.036 504.983 793.562 506.523 793.562 508.547ZM846.801 529H840.348V510.406C840.348 508.073 839.874 506.332 838.926 505.184C837.996 504.035 836.51 503.461 834.469 503.461C831.753 503.461 829.766 504.263 828.508 505.867C827.25 507.471 826.621 510.16 826.621 513.934V529H820.195V498.758H825.227L826.129 502.723H826.457C827.368 501.283 828.663 500.171 830.34 499.387C832.017 498.603 833.876 498.211 835.918 498.211C843.173 498.211 846.801 501.902 846.801 509.285V529ZM888.938 508.629C888.938 515.228 887.105 520.277 883.441 523.777C879.777 527.259 874.5 529 867.609 529H856.426V489.023H868.785C875.147 489.023 880.096 490.737 883.633 494.164C887.169 497.591 888.938 502.413 888.938 508.629ZM882.047 508.848C882.047 499.277 877.572 494.492 868.621 494.492H862.961V523.504H867.609C877.234 523.504 882.047 518.618 882.047 508.848ZM915.789 529L914.504 524.789H914.285C912.827 526.63 911.359 527.888 909.883 528.562C908.406 529.219 906.51 529.547 904.195 529.547C901.224 529.547 898.9 528.745 897.223 527.141C895.564 525.536 894.734 523.267 894.734 520.332C894.734 517.215 895.892 514.863 898.207 513.277C900.522 511.691 904.049 510.826 908.789 510.68L914.012 510.516V508.902C914.012 506.97 913.556 505.53 912.645 504.582C911.751 503.616 910.357 503.133 908.461 503.133C906.911 503.133 905.426 503.361 904.004 503.816C902.582 504.272 901.215 504.81 899.902 505.43L897.824 500.836C899.465 499.979 901.26 499.332 903.211 498.895C905.161 498.439 907.003 498.211 908.734 498.211C912.581 498.211 915.479 499.049 917.43 500.727C919.398 502.404 920.383 505.038 920.383 508.629V529H915.789ZM906.219 524.625C908.552 524.625 910.421 523.978 911.824 522.684C913.246 521.371 913.957 519.539 913.957 517.188V514.562L910.074 514.727C907.048 514.836 904.842 515.346 903.457 516.258C902.09 517.151 901.406 518.527 901.406 520.387C901.406 521.736 901.807 522.784 902.609 523.531C903.411 524.26 904.615 524.625 906.219 524.625ZM940.617 524.352C942.185 524.352 943.753 524.105 945.32 523.613V528.453C944.609 528.763 943.689 529.018 942.559 529.219C941.447 529.438 940.289 529.547 939.086 529.547C932.997 529.547 929.953 526.339 929.953 519.922V503.625H925.824V500.781L930.254 498.43L932.441 492.031H936.406V498.758H945.02V503.625H936.406V519.812C936.406 521.362 936.789 522.51 937.555 523.258C938.339 523.987 939.359 524.352 940.617 524.352ZM970.312 529L969.027 524.789H968.809C967.35 526.63 965.883 527.888 964.406 528.562C962.93 529.219 961.034 529.547 958.719 529.547C955.747 529.547 953.423 528.745 951.746 527.141C950.087 525.536 949.258 523.267 949.258 520.332C949.258 517.215 950.415 514.863 952.73 513.277C955.046 511.691 958.573 510.826 963.312 510.68L968.535 510.516V508.902C968.535 506.97 968.079 505.53 967.168 504.582C966.275 503.616 964.88 503.133 962.984 503.133C961.435 503.133 959.949 503.361 958.527 503.816C957.105 504.272 955.738 504.81 954.426 505.43L952.348 500.836C953.988 499.979 955.784 499.332 957.734 498.895C959.685 498.439 961.526 498.211 963.258 498.211C967.104 498.211 970.003 499.049 971.953 500.727C973.922 502.404 974.906 505.038 974.906 508.629V529H970.312ZM960.742 524.625C963.076 524.625 964.944 523.978 966.348 522.684C967.77 521.371 968.48 519.539 968.48 517.188V514.562L964.598 514.727C961.572 514.836 959.366 515.346 957.98 516.258C956.613 517.151 955.93 518.527 955.93 520.387C955.93 521.736 956.331 522.784 957.133 523.531C957.935 524.26 959.138 524.625 960.742 524.625ZM981.523 513.66C981.523 508.829 982.225 504.309 983.629 500.098C985.051 495.887 987.092 492.195 989.754 489.023H995.359C992.826 492.451 990.884 496.297 989.535 500.562C988.186 504.81 987.512 509.158 987.512 513.605C987.512 518.053 988.186 522.365 989.535 526.539C990.884 530.714 992.807 534.487 995.305 537.859H989.754C987.074 534.76 985.033 531.142 983.629 527.004C982.225 522.866 981.523 518.418 981.523 513.66ZM1012.56 513.66C1012.56 518.454 1011.85 522.921 1010.43 527.059C1009.02 531.197 1006.99 534.797 1004.33 537.859H998.777C1001.29 534.451 1003.22 530.668 1004.55 526.512C1005.9 522.355 1006.57 518.053 1006.57 513.605C1006.57 509.139 1005.9 504.792 1004.55 500.562C1003.2 496.315 1001.26 492.469 998.723 489.023H1004.33C1007.01 492.214 1009.05 495.923 1010.45 500.152C1011.86 504.363 1012.56 508.866 1012.56 513.66Z" fill="black"/>
<path d="M771.277 388V348.023H777.812V388H771.277ZM814.316 388H807.863V369.406C807.863 367.073 807.389 365.332 806.441 364.184C805.512 363.035 804.026 362.461 801.984 362.461C799.268 362.461 797.281 363.263 796.023 364.867C794.766 366.471 794.137 369.16 794.137 372.934V388H787.711V357.758H792.742L793.645 361.723H793.973C794.884 360.283 796.178 359.171 797.855 358.387C799.533 357.603 801.392 357.211 803.434 357.211C810.689 357.211 814.316 360.902 814.316 368.285V388ZM834.523 383.352C836.091 383.352 837.659 383.105 839.227 382.613V387.453C838.516 387.763 837.595 388.018 836.465 388.219C835.353 388.438 834.195 388.547 832.992 388.547C826.904 388.547 823.859 385.339 823.859 378.922V362.625H819.73V359.781L824.16 357.43L826.348 351.031H830.312V357.758H838.926V362.625H830.312V378.812C830.312 380.362 830.695 381.51 831.461 382.258C832.245 382.987 833.266 383.352 834.523 383.352ZM858.504 388.547C853.801 388.547 850.118 387.18 847.457 384.445C844.814 381.693 843.492 377.91 843.492 373.098C843.492 368.158 844.723 364.275 847.184 361.449C849.645 358.624 853.026 357.211 857.328 357.211C861.32 357.211 864.474 358.423 866.789 360.848C869.104 363.272 870.262 366.608 870.262 370.855V374.328H850.109C850.201 377.263 850.993 379.523 852.488 381.109C853.983 382.677 856.089 383.461 858.805 383.461C860.591 383.461 862.25 383.297 863.781 382.969C865.331 382.622 866.99 382.057 868.758 381.273V386.496C867.19 387.243 865.604 387.772 864 388.082C862.396 388.392 860.564 388.547 858.504 388.547ZM857.328 362.078C855.286 362.078 853.646 362.725 852.406 364.02C851.185 365.314 850.456 367.201 850.219 369.68H863.945C863.909 367.182 863.307 365.296 862.141 364.02C860.974 362.725 859.37 362.078 857.328 362.078ZM892.902 357.211C894.197 357.211 895.263 357.302 896.102 357.484L895.473 363.473C894.561 363.254 893.613 363.145 892.629 363.145C890.059 363.145 887.971 363.983 886.367 365.66C884.781 367.337 883.988 369.516 883.988 372.195V388H877.562V357.758H882.594L883.441 363.09H883.77C884.772 361.285 886.076 359.854 887.68 358.797C889.302 357.74 891.043 357.211 892.902 357.211ZM928.34 388H921.887V369.406C921.887 367.073 921.413 365.332 920.465 364.184C919.535 363.035 918.049 362.461 916.008 362.461C913.292 362.461 911.305 363.263 910.047 364.867C908.789 366.471 908.16 369.16 908.16 372.934V388H901.734V357.758H906.766L907.668 361.723H907.996C908.908 360.283 910.202 359.171 911.879 358.387C913.556 357.603 915.415 357.211 917.457 357.211C924.712 357.211 928.34 360.902 928.34 368.285V388ZM950.488 388.547C945.785 388.547 942.103 387.18 939.441 384.445C936.798 381.693 935.477 377.91 935.477 373.098C935.477 368.158 936.707 364.275 939.168 361.449C941.629 358.624 945.01 357.211 949.312 357.211C953.305 357.211 956.458 358.423 958.773 360.848C961.089 363.272 962.246 366.608 962.246 370.855V374.328H942.094C942.185 377.263 942.978 379.523 944.473 381.109C945.967 382.677 948.073 383.461 950.789 383.461C952.576 383.461 954.234 383.297 955.766 382.969C957.315 382.622 958.974 382.057 960.742 381.273V386.496C959.174 387.243 957.589 387.772 955.984 388.082C954.38 388.392 952.548 388.547 950.488 388.547ZM949.312 362.078C947.271 362.078 945.63 362.725 944.391 364.02C943.169 365.314 942.44 367.201 942.203 369.68H955.93C955.893 367.182 955.292 365.296 954.125 364.02C952.958 362.725 951.354 362.078 949.312 362.078ZM980.812 383.352C982.38 383.352 983.948 383.105 985.516 382.613V387.453C984.805 387.763 983.884 388.018 982.754 388.219C981.642 388.438 980.484 388.547 979.281 388.547C973.193 388.547 970.148 385.339 970.148 378.922V362.625H966.02V359.781L970.449 357.43L972.637 351.031H976.602V357.758H985.215V362.625H976.602V378.812C976.602 380.362 976.984 381.51 977.75 382.258C978.534 382.987 979.555 383.352 980.812 383.352Z" fill="black"/>
<path d="M43.0547 65.0234H49.8359L35.8359 105H28.9453L15 65.0234H21.7266L30.0664 89.8789C30.5039 91.0638 30.9688 92.5951 31.4609 94.4727C31.9531 96.332 32.2721 97.7174 32.418 98.6289C32.6549 97.2435 33.0195 95.6393 33.5117 93.8164C34.0039 91.9935 34.4049 90.6445 34.7148 89.7695L43.0547 65.0234ZM73.3516 105L72.0664 100.789H71.8477C70.3893 102.63 68.9219 103.888 67.4453 104.562C65.9688 105.219 64.0729 105.547 61.7578 105.547C58.7865 105.547 56.4622 104.745 54.7852 103.141C53.1263 101.536 52.2969 99.2669 52.2969 96.332C52.2969 93.2148 53.4544 90.8633 55.7695 89.2773C58.0846 87.6914 61.612 86.8255 66.3516 86.6797L71.5742 86.5156V84.9023C71.5742 82.9701 71.1185 81.5299 70.207 80.582C69.3138 79.6159 67.9193 79.1328 66.0234 79.1328C64.474 79.1328 62.9883 79.3607 61.5664 79.8164C60.1445 80.2721 58.7773 80.8099 57.4648 81.4297L55.3867 76.8359C57.0273 75.9792 58.8229 75.332 60.7734 74.8945C62.724 74.4388 64.5651 74.2109 66.2969 74.2109C70.1432 74.2109 73.0417 75.0495 74.9922 76.7266C76.9609 78.4036 77.9453 81.0378 77.9453 84.6289V105H73.3516ZM63.7812 100.625C66.1146 100.625 67.9831 99.9779 69.3867 98.6836C70.8086 97.3711 71.5195 95.5391 71.5195 93.1875V90.5625L67.6367 90.7266C64.6107 90.8359 62.4049 91.3464 61.0195 92.2578C59.6523 93.151 58.9688 94.5273 58.9688 96.3867C58.9688 97.7357 59.3698 98.7839 60.1719 99.5312C60.974 100.26 62.1771 100.625 63.7812 100.625ZM93.3398 105H86.9141V62.4531H93.3398V105ZM108.98 105H102.555V74.7578H108.98V105ZM102.172 66.7461C102.172 65.5977 102.482 64.7135 103.102 64.0938C103.74 63.474 104.642 63.1641 105.809 63.1641C106.939 63.1641 107.814 63.474 108.434 64.0938C109.072 64.7135 109.391 65.5977 109.391 66.7461C109.391 67.8398 109.072 68.7057 108.434 69.3438C107.814 69.9635 106.939 70.2734 105.809 70.2734C104.642 70.2734 103.74 69.9635 103.102 69.3438C102.482 68.7057 102.172 67.8398 102.172 66.7461ZM128.395 105.547C124.621 105.547 121.677 104.18 119.562 101.445C117.448 98.7109 116.391 94.8737 116.391 89.9336C116.391 84.9753 117.457 81.1198 119.59 78.3672C121.741 75.5964 124.712 74.2109 128.504 74.2109C132.478 74.2109 135.504 75.6784 137.582 78.6133H137.91C137.6 76.444 137.445 74.7305 137.445 73.4727V62.4531H143.898V105H138.867L137.746 101.035H137.445C135.385 104.043 132.368 105.547 128.395 105.547ZM130.117 100.352C132.76 100.352 134.684 99.6133 135.887 98.1367C137.09 96.6419 137.71 94.2266 137.746 90.8906V89.9883C137.746 86.1784 137.126 83.4714 135.887 81.8672C134.647 80.263 132.706 79.4609 130.062 79.4609C127.802 79.4609 126.061 80.3815 124.84 82.2227C123.618 84.0456 123.008 86.6523 123.008 90.043C123.008 93.3971 123.6 95.9583 124.785 97.7266C125.97 99.4766 127.747 100.352 130.117 100.352ZM172.008 105L170.723 100.789H170.504C169.046 102.63 167.578 103.888 166.102 104.562C164.625 105.219 162.729 105.547 160.414 105.547C157.443 105.547 155.118 104.745 153.441 103.141C151.783 101.536 150.953 99.2669 150.953 96.332C150.953 93.2148 152.111 90.8633 154.426 89.2773C156.741 87.6914 160.268 86.8255 165.008 86.6797L170.23 86.5156V84.9023C170.23 82.9701 169.775 81.5299 168.863 80.582C167.97 79.6159 166.576 79.1328 164.68 79.1328C163.13 79.1328 161.645 79.3607 160.223 79.8164C158.801 80.2721 157.434 80.8099 156.121 81.4297L154.043 76.8359C155.684 75.9792 157.479 75.332 159.43 74.8945C161.38 74.4388 163.221 74.2109 164.953 74.2109C168.799 74.2109 171.698 75.0495 173.648 76.7266C175.617 78.4036 176.602 81.0378 176.602 84.6289V105H172.008ZM162.438 100.625C164.771 100.625 166.639 99.9779 168.043 98.6836C169.465 97.3711 170.176 95.5391 170.176 93.1875V90.5625L166.293 90.7266C163.267 90.8359 161.061 91.3464 159.676 92.2578C158.309 93.151 157.625 94.5273 157.625 96.3867C157.625 97.7357 158.026 98.7839 158.828 99.5312C159.63 100.26 160.833 100.625 162.438 100.625ZM196.836 100.352C198.404 100.352 199.971 100.105 201.539 99.6133V104.453C200.828 104.763 199.908 105.018 198.777 105.219C197.665 105.438 196.508 105.547 195.305 105.547C189.216 105.547 186.172 102.339 186.172 95.9219V79.625H182.043V76.7812L186.473 74.4297L188.66 68.0312H192.625V74.7578H201.238V79.625H192.625V95.8125C192.625 97.362 193.008 98.5104 193.773 99.2578C194.557 99.987 195.578 100.352 196.836 100.352ZM234.434 89.8242C234.434 94.7643 233.167 98.6198 230.633 101.391C228.099 104.161 224.572 105.547 220.051 105.547C217.225 105.547 214.728 104.909 212.559 103.633C210.389 102.357 208.721 100.525 207.555 98.1367C206.388 95.7487 205.805 92.9779 205.805 89.8242C205.805 84.9206 207.062 81.0924 209.578 78.3398C212.094 75.5872 215.639 74.2109 220.215 74.2109C224.59 74.2109 228.053 75.6237 230.605 78.4492C233.158 81.2565 234.434 85.0482 234.434 89.8242ZM212.422 89.8242C212.422 96.806 215.001 100.297 220.16 100.297C225.264 100.297 227.816 96.806 227.816 89.8242C227.816 82.9154 225.246 79.4609 220.105 79.4609C217.408 79.4609 215.448 80.3542 214.227 82.1406C213.023 83.9271 212.422 86.4883 212.422 89.8242ZM257.184 74.2109C258.478 74.2109 259.544 74.3021 260.383 74.4844L259.754 80.4727C258.842 80.2539 257.895 80.1445 256.91 80.1445C254.34 80.1445 252.253 80.9831 250.648 82.6602C249.062 84.3372 248.27 86.5156 248.27 89.1953V105H241.844V74.7578H246.875L247.723 80.0898H248.051C249.053 78.2852 250.357 76.8542 251.961 75.7969C253.583 74.7396 255.324 74.2109 257.184 74.2109ZM298.254 70.0547C294.499 70.0547 291.546 71.3854 289.395 74.0469C287.243 76.7083 286.168 80.3815 286.168 85.0664C286.168 89.9701 287.198 93.6797 289.258 96.1953C291.336 98.7109 294.335 99.9688 298.254 99.9688C299.949 99.9688 301.59 99.8047 303.176 99.4766C304.762 99.1302 306.411 98.6927 308.125 98.1641V103.77C304.99 104.954 301.435 105.547 297.461 105.547C291.609 105.547 287.116 103.779 283.98 100.242C280.845 96.6875 279.277 91.6107 279.277 85.0117C279.277 80.8555 280.034 77.2188 281.547 74.1016C283.078 70.9844 285.284 68.5964 288.164 66.9375C291.044 65.2786 294.426 64.4492 298.309 64.4492C302.392 64.4492 306.165 65.306 309.629 67.0195L307.277 72.4609C305.928 71.8229 304.497 71.2669 302.984 70.793C301.49 70.3008 299.913 70.0547 298.254 70.0547ZM322.48 105H316.055V62.4531H322.48V105ZM338.121 105H331.695V74.7578H338.121V105ZM331.312 66.7461C331.312 65.5977 331.622 64.7135 332.242 64.0938C332.88 63.474 333.783 63.1641 334.949 63.1641C336.079 63.1641 336.954 63.474 337.574 64.0938C338.212 64.7135 338.531 65.5977 338.531 66.7461C338.531 67.8398 338.212 68.7057 337.574 69.3438C336.954 69.9635 336.079 70.2734 334.949 70.2734C333.783 70.2734 332.88 69.9635 332.242 69.3438C331.622 68.7057 331.312 67.8398 331.312 66.7461ZM360.543 105.547C355.84 105.547 352.158 104.18 349.496 101.445C346.853 98.6927 345.531 94.9102 345.531 90.0977C345.531 85.1576 346.762 81.2747 349.223 78.4492C351.684 75.6237 355.065 74.2109 359.367 74.2109C363.359 74.2109 366.513 75.4232 368.828 77.8477C371.143 80.2721 372.301 83.6081 372.301 87.8555V91.3281H352.148C352.24 94.263 353.033 96.5234 354.527 98.1094C356.022 99.6771 358.128 100.461 360.844 100.461C362.63 100.461 364.289 100.297 365.82 99.9688C367.37 99.6224 369.029 99.0573 370.797 98.2734V103.496C369.229 104.243 367.643 104.772 366.039 105.082C364.435 105.392 362.603 105.547 360.543 105.547ZM359.367 79.0781C357.326 79.0781 355.685 79.7253 354.445 81.0195C353.224 82.3138 352.495 84.2005 352.258 86.6797H365.984C365.948 84.1823 365.346 82.2956 364.18 81.0195C363.013 79.7253 361.409 79.0781 359.367 79.0781ZM406.207 105H399.754V86.4062C399.754 84.0729 399.28 82.332 398.332 81.1836C397.402 80.0352 395.917 79.4609 393.875 79.4609C391.159 79.4609 389.172 80.263 387.914 81.8672C386.656 83.4714 386.027 86.1602 386.027 89.9336V105H379.602V74.7578H384.633L385.535 78.7227H385.863C386.775 77.2826 388.069 76.1706 389.746 75.3867C391.423 74.6029 393.283 74.2109 395.324 74.2109C402.579 74.2109 406.207 77.9023 406.207 85.2852V105ZM426.414 100.352C427.982 100.352 429.549 100.105 431.117 99.6133V104.453C430.406 104.763 429.486 105.018 428.355 105.219C427.243 105.438 426.086 105.547 424.883 105.547C418.794 105.547 415.75 102.339 415.75 95.9219V79.625H411.621V76.7812L416.051 74.4297L418.238 68.0312H422.203V74.7578H430.816V79.625H422.203V95.8125C422.203 97.362 422.586 98.5104 423.352 99.2578C424.135 99.987 425.156 100.352 426.414 100.352Z" fill="black"/>
</svg>
